%TF.GenerationSoftware,KiCad,Pcbnew,(5.1.6)-1*%
%TF.CreationDate,2020-11-19T11:34:22+01:00*%
%TF.ProjectId,Karim_Arduino,4b617269-6d5f-4417-9264-75696e6f2e6b,rev?*%
%TF.SameCoordinates,Original*%
%TF.FileFunction,Copper,L2,Bot*%
%TF.FilePolarity,Positive*%
%FSLAX46Y46*%
G04 Gerber Fmt 4.6, Leading zero omitted, Abs format (unit mm)*
G04 Created by KiCad (PCBNEW (5.1.6)-1) date 2020-11-19 11:34:22*
%MOMM*%
%LPD*%
G01*
G04 APERTURE LIST*
%TA.AperFunction,ComponentPad*%
%ADD10O,1.700000X1.700000*%
%TD*%
%TA.AperFunction,ComponentPad*%
%ADD11R,1.700000X1.700000*%
%TD*%
%TA.AperFunction,ViaPad*%
%ADD12C,0.800000*%
%TD*%
%TA.AperFunction,Conductor*%
%ADD13C,0.250000*%
%TD*%
%TA.AperFunction,Conductor*%
%ADD14C,0.400000*%
%TD*%
%TA.AperFunction,Conductor*%
%ADD15C,0.254000*%
%TD*%
G04 APERTURE END LIST*
D10*
%TO.P,J3,15*%
%TO.N,SCK*%
X157130000Y-80925000D03*
%TO.P,J3,14*%
%TO.N,VCC*%
X154590000Y-80925000D03*
%TO.P,J3,13*%
%TO.N,AREF*%
X152050000Y-80925000D03*
%TO.P,J3,12*%
%TO.N,A0*%
X149510000Y-80925000D03*
%TO.P,J3,11*%
%TO.N,A1*%
X146970000Y-80925000D03*
%TO.P,J3,10*%
%TO.N,A2*%
X144430000Y-80925000D03*
%TO.P,J3,9*%
%TO.N,A3*%
X141890000Y-80925000D03*
%TO.P,J3,8*%
%TO.N,A4*%
X139350000Y-80925000D03*
%TO.P,J3,7*%
%TO.N,A5*%
X136810000Y-80925000D03*
%TO.P,J3,6*%
%TO.N,A6*%
X134270000Y-80925000D03*
%TO.P,J3,5*%
%TO.N,A7*%
X131730000Y-80925000D03*
%TO.P,J3,4*%
%TO.N,VCC*%
X129190000Y-80925000D03*
%TO.P,J3,3*%
%TO.N,RESET*%
X126650000Y-80925000D03*
%TO.P,J3,2*%
%TO.N,GND*%
X124110000Y-80925000D03*
D11*
%TO.P,J3,1*%
%TO.N,VIN*%
X121570000Y-80925000D03*
%TD*%
D10*
%TO.P,J2,15*%
%TO.N,Net-(J2-Pad15)*%
X121640000Y-100250000D03*
%TO.P,J2,14*%
%TO.N,Net-(J2-Pad14)*%
X124180000Y-100250000D03*
%TO.P,J2,13*%
%TO.N,RESET*%
X126720000Y-100250000D03*
%TO.P,J2,12*%
%TO.N,GND*%
X129260000Y-100250000D03*
%TO.P,J2,11*%
%TO.N,D2*%
X131800000Y-100250000D03*
%TO.P,J2,10*%
%TO.N,D3*%
X134340000Y-100250000D03*
%TO.P,J2,9*%
%TO.N,D4*%
X136880000Y-100250000D03*
%TO.P,J2,8*%
%TO.N,D5*%
X139420000Y-100250000D03*
%TO.P,J2,7*%
%TO.N,D6*%
X141960000Y-100250000D03*
%TO.P,J2,6*%
%TO.N,D7*%
X144500000Y-100250000D03*
%TO.P,J2,5*%
%TO.N,D8*%
X147040000Y-100250000D03*
%TO.P,J2,4*%
%TO.N,D9*%
X149580000Y-100250000D03*
%TO.P,J2,3*%
%TO.N,D10*%
X152120000Y-100250000D03*
%TO.P,J2,2*%
%TO.N,MISO*%
X154660000Y-100250000D03*
D11*
%TO.P,J2,1*%
%TO.N,MOSI*%
X157200000Y-100250000D03*
%TD*%
D10*
%TO.P,J1,6*%
%TO.N,GND*%
X124390000Y-92770000D03*
%TO.P,J1,5*%
%TO.N,RESET*%
X121850000Y-92770000D03*
%TO.P,J1,4*%
%TO.N,MOSI*%
X124390000Y-90230000D03*
%TO.P,J1,3*%
%TO.N,SCK*%
X121850000Y-90230000D03*
%TO.P,J1,2*%
%TO.N,VCC*%
X124390000Y-87690000D03*
D11*
%TO.P,J1,1*%
%TO.N,MISO*%
X121850000Y-87690000D03*
%TD*%
D12*
%TO.N,VCC*%
X137870000Y-94740000D03*
X133060000Y-95840000D03*
X136860000Y-82410000D03*
X131980000Y-83130000D03*
%TO.N,VIN*%
X127810000Y-86570000D03*
%TO.N,HSE_IN*%
X142410000Y-94080000D03*
X151540000Y-95420000D03*
%TO.N,Net-(C9-Pad1)*%
X157770000Y-97690000D03*
X140240000Y-97740000D03*
%TO.N,TXO*%
X130210000Y-95550000D03*
X138920000Y-90105000D03*
X123130000Y-93770000D03*
%TO.N,RXI*%
X140050000Y-90830000D03*
X134720000Y-94590000D03*
X125250000Y-96510000D03*
%TO.N,MISO*%
X145370000Y-91390510D03*
%TO.N,SCK*%
X143680000Y-90150000D03*
X127520000Y-88110000D03*
%TO.N,MOSI*%
X151870000Y-98580000D03*
X144959534Y-92389238D03*
%TO.N,RESET*%
X137199847Y-87420153D03*
X151850000Y-91360000D03*
%TO.N,A7*%
X142920000Y-87770000D03*
%TO.N,A6*%
X147307970Y-86537970D03*
%TD*%
D13*
%TO.N,VCC*%
X136800000Y-95810000D02*
X137870000Y-94740000D01*
X136770000Y-95840000D02*
X136800000Y-95810000D01*
X133060000Y-95840000D02*
X136770000Y-95840000D01*
X129190000Y-80150000D02*
X129190000Y-80925000D01*
X130194990Y-79145010D02*
X129190000Y-80150000D01*
X135235010Y-79145010D02*
X130194990Y-79145010D01*
X136860000Y-82410000D02*
X136391410Y-82410000D01*
X136391410Y-82410000D02*
X135490000Y-81508590D01*
X135490000Y-81508590D02*
X135490000Y-79400000D01*
X135490000Y-79400000D02*
X135235010Y-79145010D01*
D14*
X131395000Y-83130000D02*
X129190000Y-80925000D01*
X131980000Y-83130000D02*
X131395000Y-83130000D01*
%TO.N,VIN*%
X125815000Y-85170000D02*
X121570000Y-80925000D01*
X127215000Y-86570000D02*
X125815000Y-85170000D01*
X127810000Y-86570000D02*
X127215000Y-86570000D01*
D13*
%TO.N,HSE_IN*%
X151540000Y-95420000D02*
X143760000Y-95420000D01*
X143750000Y-95420000D02*
X143760000Y-95420000D01*
X142410000Y-94080000D02*
X143750000Y-95420000D01*
%TO.N,Net-(C9-Pad1)*%
X157720000Y-97740000D02*
X157770000Y-97690000D01*
X157770000Y-97690000D02*
X157190000Y-97110000D01*
X157190000Y-97110000D02*
X140930000Y-97110000D01*
X140300000Y-97740000D02*
X140240000Y-97740000D01*
X140930000Y-97110000D02*
X140300000Y-97740000D01*
%TO.N,TXO*%
X123130000Y-93770000D02*
X124180000Y-94820000D01*
X129480000Y-94820000D02*
X130210000Y-95550000D01*
X124180000Y-94820000D02*
X129480000Y-94820000D01*
D14*
X138920000Y-90105000D02*
X138920000Y-90110000D01*
D13*
X138728590Y-90105000D02*
X138920000Y-90105000D01*
X131620010Y-94139990D02*
X134097008Y-94139990D01*
X135253590Y-93580000D02*
X138728590Y-90105000D01*
X130210000Y-95550000D02*
X131620010Y-94139990D01*
X134097008Y-94139990D02*
X134656998Y-93580000D01*
X134656998Y-93580000D02*
X135253590Y-93580000D01*
%TO.N,RXI*%
X140050000Y-90830000D02*
X138640000Y-90830000D01*
X130323002Y-96510000D02*
X132243002Y-94590000D01*
X125250000Y-96510000D02*
X130323002Y-96510000D01*
X132243002Y-94590000D02*
X134720000Y-94590000D01*
X134720000Y-94590000D02*
X134880000Y-94590000D01*
X134880000Y-94590000D02*
X138640000Y-90830000D01*
%TO.N,MISO*%
X144885260Y-91390510D02*
X144385770Y-91890000D01*
X145370000Y-91390510D02*
X144885260Y-91390510D01*
X144385770Y-91890000D02*
X143276410Y-91890000D01*
X143276410Y-91890000D02*
X140316399Y-88929989D01*
X123089989Y-88929989D02*
X121850000Y-87690000D01*
X140316399Y-88929989D02*
X123089989Y-88929989D01*
%TO.N,SCK*%
X143680000Y-90150000D02*
X143356706Y-90150000D01*
X142172820Y-90150000D02*
X143680000Y-90150000D01*
X140502800Y-88479980D02*
X142172820Y-90150000D01*
X128685664Y-88479979D02*
X140502800Y-88479980D01*
X127750000Y-88110000D02*
X128315685Y-88110000D01*
X128315685Y-88110000D02*
X128685664Y-88479979D01*
X127750000Y-88110000D02*
X127520000Y-88110000D01*
%TO.N,MOSI*%
X155530000Y-98580000D02*
X157200000Y-100250000D01*
X151870000Y-98580000D02*
X155530000Y-98580000D01*
X140129999Y-89379999D02*
X143139238Y-92389238D01*
X125290001Y-89379999D02*
X140129999Y-89379999D01*
X143139238Y-92389238D02*
X144959534Y-92389238D01*
X124540000Y-89740000D02*
X124930000Y-89740000D01*
X124930000Y-89740000D02*
X125290001Y-89379999D01*
%TO.N,RESET*%
X122000000Y-95530000D02*
X126720000Y-100250000D01*
X133145153Y-87420153D02*
X126650000Y-80925000D01*
X137199847Y-87420153D02*
X133145153Y-87420153D01*
X149450000Y-88960000D02*
X142803116Y-88960000D01*
X141263269Y-87420153D02*
X137199847Y-87420153D01*
X142803116Y-88960000D02*
X141263269Y-87420153D01*
X151850000Y-91360000D02*
X149450000Y-88960000D01*
X126650000Y-80925000D02*
X125210000Y-79485000D01*
X125165000Y-79485000D02*
X124825010Y-79145010D01*
X125210000Y-79485000D02*
X125165000Y-79485000D01*
X124825010Y-79145010D02*
X119774851Y-79145010D01*
X119774851Y-79145010D02*
X119770014Y-90610050D01*
X119770014Y-90610050D02*
X119770014Y-91050014D01*
X121000000Y-92280000D02*
X122000000Y-92280000D01*
X119770014Y-91050014D02*
X121000000Y-92280000D01*
X121850000Y-95380000D02*
X122000000Y-95530000D01*
X121850000Y-92770000D02*
X121850000Y-95380000D01*
%TO.N,A7*%
X131730000Y-80925000D02*
X136415000Y-85610000D01*
X136415000Y-85610000D02*
X136430000Y-85610000D01*
X136415000Y-85610000D02*
X136420000Y-85610000D01*
X136420000Y-85610000D02*
X136840000Y-86030000D01*
X141180000Y-86030000D02*
X142920000Y-87770000D01*
X136840000Y-86030000D02*
X141180000Y-86030000D01*
%TO.N,A6*%
X147307970Y-86537970D02*
X145560000Y-84790000D01*
X138135000Y-84790000D02*
X134270000Y-80925000D01*
X145560000Y-84790000D02*
X138135000Y-84790000D01*
%TD*%
D15*
%TO.N,GND*%
G36*
X128922658Y-79778119D02*
G01*
X128846682Y-79793231D01*
X128632481Y-79881956D01*
X128439706Y-80010764D01*
X128275764Y-80174706D01*
X128146956Y-80367481D01*
X128058231Y-80581682D01*
X128013000Y-80809076D01*
X128013000Y-81040924D01*
X128058231Y-81268318D01*
X128146956Y-81482519D01*
X128275764Y-81675294D01*
X128439706Y-81839236D01*
X128632481Y-81968044D01*
X128846682Y-82056769D01*
X129074076Y-82102000D01*
X129305924Y-82102000D01*
X129533318Y-82056769D01*
X129563838Y-82044127D01*
X131004049Y-83484339D01*
X131020552Y-83504448D01*
X131100798Y-83570304D01*
X131192350Y-83619239D01*
X131291690Y-83649374D01*
X131395000Y-83659549D01*
X131420881Y-83657000D01*
X131478866Y-83657000D01*
X131516564Y-83694698D01*
X131635636Y-83774259D01*
X131767942Y-83829062D01*
X131908397Y-83857000D01*
X132051603Y-83857000D01*
X132192058Y-83829062D01*
X132324364Y-83774259D01*
X132443436Y-83694698D01*
X132544698Y-83593436D01*
X132624259Y-83474364D01*
X132679062Y-83342058D01*
X132707000Y-83201603D01*
X132707000Y-83058397D01*
X132679062Y-82917942D01*
X132624259Y-82785636D01*
X132544698Y-82666564D01*
X132443436Y-82565302D01*
X132324364Y-82485741D01*
X132192058Y-82430938D01*
X132051603Y-82403000D01*
X131908397Y-82403000D01*
X131767942Y-82430938D01*
X131635636Y-82485741D01*
X131551949Y-82541659D01*
X130309127Y-81298838D01*
X130321769Y-81268318D01*
X130367000Y-81040924D01*
X130367000Y-80809076D01*
X130321769Y-80581682D01*
X130233044Y-80367481D01*
X130104236Y-80174706D01*
X129954377Y-80024847D01*
X130382215Y-79597010D01*
X135038001Y-79597010D01*
X135038001Y-80028471D01*
X135020294Y-80010764D01*
X134827519Y-79881956D01*
X134613318Y-79793231D01*
X134385924Y-79748000D01*
X134154076Y-79748000D01*
X133926682Y-79793231D01*
X133712481Y-79881956D01*
X133519706Y-80010764D01*
X133355764Y-80174706D01*
X133226956Y-80367481D01*
X133138231Y-80581682D01*
X133093000Y-80809076D01*
X133093000Y-81040924D01*
X133138231Y-81268318D01*
X133226956Y-81482519D01*
X133355764Y-81675294D01*
X133519706Y-81839236D01*
X133712481Y-81968044D01*
X133926682Y-82056769D01*
X134154076Y-82102000D01*
X134385924Y-82102000D01*
X134613318Y-82056769D01*
X134718838Y-82013061D01*
X137799685Y-85093910D01*
X137813841Y-85111159D01*
X137882667Y-85167643D01*
X137961190Y-85209614D01*
X138026562Y-85229444D01*
X138046392Y-85235460D01*
X138134999Y-85244187D01*
X138157204Y-85242000D01*
X145372777Y-85242000D01*
X146583653Y-86452877D01*
X146580970Y-86466367D01*
X146580970Y-86609573D01*
X146608908Y-86750028D01*
X146663711Y-86882334D01*
X146743272Y-87001406D01*
X146844534Y-87102668D01*
X146963606Y-87182229D01*
X147095912Y-87237032D01*
X147236367Y-87264970D01*
X147379573Y-87264970D01*
X147520028Y-87237032D01*
X147652334Y-87182229D01*
X147771406Y-87102668D01*
X147872668Y-87001406D01*
X147952229Y-86882334D01*
X148007032Y-86750028D01*
X148034970Y-86609573D01*
X148034970Y-86466367D01*
X148007032Y-86325912D01*
X147952229Y-86193606D01*
X147872668Y-86074534D01*
X147771406Y-85973272D01*
X147652334Y-85893711D01*
X147520028Y-85838908D01*
X147379573Y-85810970D01*
X147236367Y-85810970D01*
X147222877Y-85813653D01*
X145895323Y-84486100D01*
X145881159Y-84468841D01*
X145812333Y-84412357D01*
X145733810Y-84370386D01*
X145648607Y-84344540D01*
X145582205Y-84338000D01*
X145560000Y-84335813D01*
X145537795Y-84338000D01*
X138322225Y-84338000D01*
X137087069Y-83102844D01*
X137204364Y-83054259D01*
X137323436Y-82974698D01*
X137424698Y-82873436D01*
X137504259Y-82754364D01*
X137559062Y-82622058D01*
X137587000Y-82481603D01*
X137587000Y-82338397D01*
X137559062Y-82197942D01*
X137504259Y-82065636D01*
X137424698Y-81946564D01*
X137414672Y-81936538D01*
X137560294Y-81839236D01*
X137724236Y-81675294D01*
X137853044Y-81482519D01*
X137941769Y-81268318D01*
X137987000Y-81040924D01*
X137987000Y-80809076D01*
X138173000Y-80809076D01*
X138173000Y-81040924D01*
X138218231Y-81268318D01*
X138306956Y-81482519D01*
X138435764Y-81675294D01*
X138599706Y-81839236D01*
X138792481Y-81968044D01*
X139006682Y-82056769D01*
X139234076Y-82102000D01*
X139465924Y-82102000D01*
X139693318Y-82056769D01*
X139907519Y-81968044D01*
X140100294Y-81839236D01*
X140264236Y-81675294D01*
X140393044Y-81482519D01*
X140481769Y-81268318D01*
X140527000Y-81040924D01*
X140527000Y-80809076D01*
X140713000Y-80809076D01*
X140713000Y-81040924D01*
X140758231Y-81268318D01*
X140846956Y-81482519D01*
X140975764Y-81675294D01*
X141139706Y-81839236D01*
X141332481Y-81968044D01*
X141546682Y-82056769D01*
X141774076Y-82102000D01*
X142005924Y-82102000D01*
X142233318Y-82056769D01*
X142447519Y-81968044D01*
X142640294Y-81839236D01*
X142804236Y-81675294D01*
X142933044Y-81482519D01*
X143021769Y-81268318D01*
X143067000Y-81040924D01*
X143067000Y-80809076D01*
X143253000Y-80809076D01*
X143253000Y-81040924D01*
X143298231Y-81268318D01*
X143386956Y-81482519D01*
X143515764Y-81675294D01*
X143679706Y-81839236D01*
X143872481Y-81968044D01*
X144086682Y-82056769D01*
X144314076Y-82102000D01*
X144545924Y-82102000D01*
X144773318Y-82056769D01*
X144987519Y-81968044D01*
X145180294Y-81839236D01*
X145344236Y-81675294D01*
X145473044Y-81482519D01*
X145561769Y-81268318D01*
X145607000Y-81040924D01*
X145607000Y-80809076D01*
X145793000Y-80809076D01*
X145793000Y-81040924D01*
X145838231Y-81268318D01*
X145926956Y-81482519D01*
X146055764Y-81675294D01*
X146219706Y-81839236D01*
X146412481Y-81968044D01*
X146626682Y-82056769D01*
X146854076Y-82102000D01*
X147085924Y-82102000D01*
X147313318Y-82056769D01*
X147527519Y-81968044D01*
X147720294Y-81839236D01*
X147884236Y-81675294D01*
X148013044Y-81482519D01*
X148101769Y-81268318D01*
X148147000Y-81040924D01*
X148147000Y-80809076D01*
X148333000Y-80809076D01*
X148333000Y-81040924D01*
X148378231Y-81268318D01*
X148466956Y-81482519D01*
X148595764Y-81675294D01*
X148759706Y-81839236D01*
X148952481Y-81968044D01*
X149166682Y-82056769D01*
X149394076Y-82102000D01*
X149625924Y-82102000D01*
X149853318Y-82056769D01*
X150067519Y-81968044D01*
X150260294Y-81839236D01*
X150424236Y-81675294D01*
X150553044Y-81482519D01*
X150641769Y-81268318D01*
X150687000Y-81040924D01*
X150687000Y-80809076D01*
X150873000Y-80809076D01*
X150873000Y-81040924D01*
X150918231Y-81268318D01*
X151006956Y-81482519D01*
X151135764Y-81675294D01*
X151299706Y-81839236D01*
X151492481Y-81968044D01*
X151706682Y-82056769D01*
X151934076Y-82102000D01*
X152165924Y-82102000D01*
X152393318Y-82056769D01*
X152607519Y-81968044D01*
X152800294Y-81839236D01*
X152964236Y-81675294D01*
X153093044Y-81482519D01*
X153181769Y-81268318D01*
X153227000Y-81040924D01*
X153227000Y-80809076D01*
X153413000Y-80809076D01*
X153413000Y-81040924D01*
X153458231Y-81268318D01*
X153546956Y-81482519D01*
X153675764Y-81675294D01*
X153839706Y-81839236D01*
X154032481Y-81968044D01*
X154246682Y-82056769D01*
X154474076Y-82102000D01*
X154705924Y-82102000D01*
X154933318Y-82056769D01*
X155147519Y-81968044D01*
X155340294Y-81839236D01*
X155504236Y-81675294D01*
X155633044Y-81482519D01*
X155721769Y-81268318D01*
X155767000Y-81040924D01*
X155767000Y-80809076D01*
X155953000Y-80809076D01*
X155953000Y-81040924D01*
X155998231Y-81268318D01*
X156086956Y-81482519D01*
X156215764Y-81675294D01*
X156379706Y-81839236D01*
X156572481Y-81968044D01*
X156786682Y-82056769D01*
X157014076Y-82102000D01*
X157245924Y-82102000D01*
X157473318Y-82056769D01*
X157687519Y-81968044D01*
X157880294Y-81839236D01*
X158044236Y-81675294D01*
X158173044Y-81482519D01*
X158261769Y-81268318D01*
X158307000Y-81040924D01*
X158307000Y-80809076D01*
X158261769Y-80581682D01*
X158173044Y-80367481D01*
X158044236Y-80174706D01*
X157880294Y-80010764D01*
X157687519Y-79881956D01*
X157473318Y-79793231D01*
X157245924Y-79748000D01*
X157014076Y-79748000D01*
X156786682Y-79793231D01*
X156572481Y-79881956D01*
X156379706Y-80010764D01*
X156215764Y-80174706D01*
X156086956Y-80367481D01*
X155998231Y-80581682D01*
X155953000Y-80809076D01*
X155767000Y-80809076D01*
X155721769Y-80581682D01*
X155633044Y-80367481D01*
X155504236Y-80174706D01*
X155340294Y-80010764D01*
X155147519Y-79881956D01*
X154933318Y-79793231D01*
X154705924Y-79748000D01*
X154474076Y-79748000D01*
X154246682Y-79793231D01*
X154032481Y-79881956D01*
X153839706Y-80010764D01*
X153675764Y-80174706D01*
X153546956Y-80367481D01*
X153458231Y-80581682D01*
X153413000Y-80809076D01*
X153227000Y-80809076D01*
X153181769Y-80581682D01*
X153093044Y-80367481D01*
X152964236Y-80174706D01*
X152800294Y-80010764D01*
X152607519Y-79881956D01*
X152393318Y-79793231D01*
X152165924Y-79748000D01*
X151934076Y-79748000D01*
X151706682Y-79793231D01*
X151492481Y-79881956D01*
X151299706Y-80010764D01*
X151135764Y-80174706D01*
X151006956Y-80367481D01*
X150918231Y-80581682D01*
X150873000Y-80809076D01*
X150687000Y-80809076D01*
X150641769Y-80581682D01*
X150553044Y-80367481D01*
X150424236Y-80174706D01*
X150260294Y-80010764D01*
X150067519Y-79881956D01*
X149853318Y-79793231D01*
X149625924Y-79748000D01*
X149394076Y-79748000D01*
X149166682Y-79793231D01*
X148952481Y-79881956D01*
X148759706Y-80010764D01*
X148595764Y-80174706D01*
X148466956Y-80367481D01*
X148378231Y-80581682D01*
X148333000Y-80809076D01*
X148147000Y-80809076D01*
X148101769Y-80581682D01*
X148013044Y-80367481D01*
X147884236Y-80174706D01*
X147720294Y-80010764D01*
X147527519Y-79881956D01*
X147313318Y-79793231D01*
X147085924Y-79748000D01*
X146854076Y-79748000D01*
X146626682Y-79793231D01*
X146412481Y-79881956D01*
X146219706Y-80010764D01*
X146055764Y-80174706D01*
X145926956Y-80367481D01*
X145838231Y-80581682D01*
X145793000Y-80809076D01*
X145607000Y-80809076D01*
X145561769Y-80581682D01*
X145473044Y-80367481D01*
X145344236Y-80174706D01*
X145180294Y-80010764D01*
X144987519Y-79881956D01*
X144773318Y-79793231D01*
X144545924Y-79748000D01*
X144314076Y-79748000D01*
X144086682Y-79793231D01*
X143872481Y-79881956D01*
X143679706Y-80010764D01*
X143515764Y-80174706D01*
X143386956Y-80367481D01*
X143298231Y-80581682D01*
X143253000Y-80809076D01*
X143067000Y-80809076D01*
X143021769Y-80581682D01*
X142933044Y-80367481D01*
X142804236Y-80174706D01*
X142640294Y-80010764D01*
X142447519Y-79881956D01*
X142233318Y-79793231D01*
X142005924Y-79748000D01*
X141774076Y-79748000D01*
X141546682Y-79793231D01*
X141332481Y-79881956D01*
X141139706Y-80010764D01*
X140975764Y-80174706D01*
X140846956Y-80367481D01*
X140758231Y-80581682D01*
X140713000Y-80809076D01*
X140527000Y-80809076D01*
X140481769Y-80581682D01*
X140393044Y-80367481D01*
X140264236Y-80174706D01*
X140100294Y-80010764D01*
X139907519Y-79881956D01*
X139693318Y-79793231D01*
X139465924Y-79748000D01*
X139234076Y-79748000D01*
X139006682Y-79793231D01*
X138792481Y-79881956D01*
X138599706Y-80010764D01*
X138435764Y-80174706D01*
X138306956Y-80367481D01*
X138218231Y-80581682D01*
X138173000Y-80809076D01*
X137987000Y-80809076D01*
X137941769Y-80581682D01*
X137853044Y-80367481D01*
X137724236Y-80174706D01*
X137560294Y-80010764D01*
X137367519Y-79881956D01*
X137153318Y-79793231D01*
X136925924Y-79748000D01*
X136694076Y-79748000D01*
X136466682Y-79793231D01*
X136252481Y-79881956D01*
X136059706Y-80010764D01*
X135942000Y-80128470D01*
X135942000Y-79422204D01*
X135944187Y-79399999D01*
X135935460Y-79311392D01*
X135929444Y-79291562D01*
X135909614Y-79226190D01*
X135867643Y-79147667D01*
X135867096Y-79147000D01*
X158833001Y-79147000D01*
X158833000Y-102093000D01*
X119767159Y-102093000D01*
X119767985Y-100134076D01*
X120463000Y-100134076D01*
X120463000Y-100365924D01*
X120508231Y-100593318D01*
X120596956Y-100807519D01*
X120725764Y-101000294D01*
X120889706Y-101164236D01*
X121082481Y-101293044D01*
X121296682Y-101381769D01*
X121524076Y-101427000D01*
X121755924Y-101427000D01*
X121983318Y-101381769D01*
X122197519Y-101293044D01*
X122390294Y-101164236D01*
X122554236Y-101000294D01*
X122683044Y-100807519D01*
X122771769Y-100593318D01*
X122817000Y-100365924D01*
X122817000Y-100134076D01*
X123003000Y-100134076D01*
X123003000Y-100365924D01*
X123048231Y-100593318D01*
X123136956Y-100807519D01*
X123265764Y-101000294D01*
X123429706Y-101164236D01*
X123622481Y-101293044D01*
X123836682Y-101381769D01*
X124064076Y-101427000D01*
X124295924Y-101427000D01*
X124523318Y-101381769D01*
X124737519Y-101293044D01*
X124930294Y-101164236D01*
X125094236Y-101000294D01*
X125223044Y-100807519D01*
X125311769Y-100593318D01*
X125357000Y-100365924D01*
X125357000Y-100134076D01*
X125311769Y-99906682D01*
X125223044Y-99692481D01*
X125094236Y-99499706D01*
X124930294Y-99335764D01*
X124737519Y-99206956D01*
X124523318Y-99118231D01*
X124295924Y-99073000D01*
X124064076Y-99073000D01*
X123836682Y-99118231D01*
X123622481Y-99206956D01*
X123429706Y-99335764D01*
X123265764Y-99499706D01*
X123136956Y-99692481D01*
X123048231Y-99906682D01*
X123003000Y-100134076D01*
X122817000Y-100134076D01*
X122771769Y-99906682D01*
X122683044Y-99692481D01*
X122554236Y-99499706D01*
X122390294Y-99335764D01*
X122197519Y-99206956D01*
X121983318Y-99118231D01*
X121755924Y-99073000D01*
X121524076Y-99073000D01*
X121296682Y-99118231D01*
X121082481Y-99206956D01*
X120889706Y-99335764D01*
X120725764Y-99499706D01*
X120596956Y-99692481D01*
X120508231Y-99906682D01*
X120463000Y-100134076D01*
X119767985Y-100134076D01*
X119771548Y-91690771D01*
X120664681Y-92583905D01*
X120678841Y-92601159D01*
X120682868Y-92604464D01*
X120673000Y-92654076D01*
X120673000Y-92885924D01*
X120718231Y-93113318D01*
X120806956Y-93327519D01*
X120935764Y-93520294D01*
X121099706Y-93684236D01*
X121292481Y-93813044D01*
X121398000Y-93856752D01*
X121398001Y-95357785D01*
X121395813Y-95380000D01*
X121404540Y-95468607D01*
X121430386Y-95553809D01*
X121451767Y-95593810D01*
X121472358Y-95632333D01*
X121528842Y-95701159D01*
X121546096Y-95715319D01*
X125631939Y-99801162D01*
X125588231Y-99906682D01*
X125543000Y-100134076D01*
X125543000Y-100365924D01*
X125588231Y-100593318D01*
X125676956Y-100807519D01*
X125805764Y-101000294D01*
X125969706Y-101164236D01*
X126162481Y-101293044D01*
X126376682Y-101381769D01*
X126604076Y-101427000D01*
X126835924Y-101427000D01*
X127063318Y-101381769D01*
X127277519Y-101293044D01*
X127470294Y-101164236D01*
X127634236Y-101000294D01*
X127763044Y-100807519D01*
X127831264Y-100642821D01*
X127915843Y-100881252D01*
X128064822Y-101131355D01*
X128259731Y-101347588D01*
X128493080Y-101521641D01*
X128755901Y-101646825D01*
X128903110Y-101691476D01*
X129133000Y-101570155D01*
X129133000Y-100377000D01*
X129113000Y-100377000D01*
X129113000Y-100123000D01*
X129133000Y-100123000D01*
X129133000Y-98929845D01*
X129387000Y-98929845D01*
X129387000Y-100123000D01*
X129407000Y-100123000D01*
X129407000Y-100377000D01*
X129387000Y-100377000D01*
X129387000Y-101570155D01*
X129616890Y-101691476D01*
X129764099Y-101646825D01*
X130026920Y-101521641D01*
X130260269Y-101347588D01*
X130455178Y-101131355D01*
X130604157Y-100881252D01*
X130688736Y-100642821D01*
X130756956Y-100807519D01*
X130885764Y-101000294D01*
X131049706Y-101164236D01*
X131242481Y-101293044D01*
X131456682Y-101381769D01*
X131684076Y-101427000D01*
X131915924Y-101427000D01*
X132143318Y-101381769D01*
X132357519Y-101293044D01*
X132550294Y-101164236D01*
X132714236Y-101000294D01*
X132843044Y-100807519D01*
X132931769Y-100593318D01*
X132977000Y-100365924D01*
X132977000Y-100134076D01*
X133163000Y-100134076D01*
X133163000Y-100365924D01*
X133208231Y-100593318D01*
X133296956Y-100807519D01*
X133425764Y-101000294D01*
X133589706Y-101164236D01*
X133782481Y-101293044D01*
X133996682Y-101381769D01*
X134224076Y-101427000D01*
X134455924Y-101427000D01*
X134683318Y-101381769D01*
X134897519Y-101293044D01*
X135090294Y-101164236D01*
X135254236Y-101000294D01*
X135383044Y-100807519D01*
X135471769Y-100593318D01*
X135517000Y-100365924D01*
X135517000Y-100134076D01*
X135703000Y-100134076D01*
X135703000Y-100365924D01*
X135748231Y-100593318D01*
X135836956Y-100807519D01*
X135965764Y-101000294D01*
X136129706Y-101164236D01*
X136322481Y-101293044D01*
X136536682Y-101381769D01*
X136764076Y-101427000D01*
X136995924Y-101427000D01*
X137223318Y-101381769D01*
X137437519Y-101293044D01*
X137630294Y-101164236D01*
X137794236Y-101000294D01*
X137923044Y-100807519D01*
X138011769Y-100593318D01*
X138057000Y-100365924D01*
X138057000Y-100134076D01*
X138243000Y-100134076D01*
X138243000Y-100365924D01*
X138288231Y-100593318D01*
X138376956Y-100807519D01*
X138505764Y-101000294D01*
X138669706Y-101164236D01*
X138862481Y-101293044D01*
X139076682Y-101381769D01*
X139304076Y-101427000D01*
X139535924Y-101427000D01*
X139763318Y-101381769D01*
X139977519Y-101293044D01*
X140170294Y-101164236D01*
X140334236Y-101000294D01*
X140463044Y-100807519D01*
X140551769Y-100593318D01*
X140597000Y-100365924D01*
X140597000Y-100134076D01*
X140783000Y-100134076D01*
X140783000Y-100365924D01*
X140828231Y-100593318D01*
X140916956Y-100807519D01*
X141045764Y-101000294D01*
X141209706Y-101164236D01*
X141402481Y-101293044D01*
X141616682Y-101381769D01*
X141844076Y-101427000D01*
X142075924Y-101427000D01*
X142303318Y-101381769D01*
X142517519Y-101293044D01*
X142710294Y-101164236D01*
X142874236Y-101000294D01*
X143003044Y-100807519D01*
X143091769Y-100593318D01*
X143137000Y-100365924D01*
X143137000Y-100134076D01*
X143323000Y-100134076D01*
X143323000Y-100365924D01*
X143368231Y-100593318D01*
X143456956Y-100807519D01*
X143585764Y-101000294D01*
X143749706Y-101164236D01*
X143942481Y-101293044D01*
X144156682Y-101381769D01*
X144384076Y-101427000D01*
X144615924Y-101427000D01*
X144843318Y-101381769D01*
X145057519Y-101293044D01*
X145250294Y-101164236D01*
X145414236Y-101000294D01*
X145543044Y-100807519D01*
X145631769Y-100593318D01*
X145677000Y-100365924D01*
X145677000Y-100134076D01*
X145863000Y-100134076D01*
X145863000Y-100365924D01*
X145908231Y-100593318D01*
X145996956Y-100807519D01*
X146125764Y-101000294D01*
X146289706Y-101164236D01*
X146482481Y-101293044D01*
X146696682Y-101381769D01*
X146924076Y-101427000D01*
X147155924Y-101427000D01*
X147383318Y-101381769D01*
X147597519Y-101293044D01*
X147790294Y-101164236D01*
X147954236Y-101000294D01*
X148083044Y-100807519D01*
X148171769Y-100593318D01*
X148217000Y-100365924D01*
X148217000Y-100134076D01*
X148403000Y-100134076D01*
X148403000Y-100365924D01*
X148448231Y-100593318D01*
X148536956Y-100807519D01*
X148665764Y-101000294D01*
X148829706Y-101164236D01*
X149022481Y-101293044D01*
X149236682Y-101381769D01*
X149464076Y-101427000D01*
X149695924Y-101427000D01*
X149923318Y-101381769D01*
X150137519Y-101293044D01*
X150330294Y-101164236D01*
X150494236Y-101000294D01*
X150623044Y-100807519D01*
X150711769Y-100593318D01*
X150757000Y-100365924D01*
X150757000Y-100134076D01*
X150943000Y-100134076D01*
X150943000Y-100365924D01*
X150988231Y-100593318D01*
X151076956Y-100807519D01*
X151205764Y-101000294D01*
X151369706Y-101164236D01*
X151562481Y-101293044D01*
X151776682Y-101381769D01*
X152004076Y-101427000D01*
X152235924Y-101427000D01*
X152463318Y-101381769D01*
X152677519Y-101293044D01*
X152870294Y-101164236D01*
X153034236Y-101000294D01*
X153163044Y-100807519D01*
X153251769Y-100593318D01*
X153297000Y-100365924D01*
X153297000Y-100134076D01*
X153483000Y-100134076D01*
X153483000Y-100365924D01*
X153528231Y-100593318D01*
X153616956Y-100807519D01*
X153745764Y-101000294D01*
X153909706Y-101164236D01*
X154102481Y-101293044D01*
X154316682Y-101381769D01*
X154544076Y-101427000D01*
X154775924Y-101427000D01*
X155003318Y-101381769D01*
X155217519Y-101293044D01*
X155410294Y-101164236D01*
X155574236Y-101000294D01*
X155703044Y-100807519D01*
X155791769Y-100593318D01*
X155837000Y-100365924D01*
X155837000Y-100134076D01*
X155791769Y-99906682D01*
X155703044Y-99692481D01*
X155574236Y-99499706D01*
X155410294Y-99335764D01*
X155217519Y-99206956D01*
X155003318Y-99118231D01*
X154775924Y-99073000D01*
X154544076Y-99073000D01*
X154316682Y-99118231D01*
X154102481Y-99206956D01*
X153909706Y-99335764D01*
X153745764Y-99499706D01*
X153616956Y-99692481D01*
X153528231Y-99906682D01*
X153483000Y-100134076D01*
X153297000Y-100134076D01*
X153251769Y-99906682D01*
X153163044Y-99692481D01*
X153034236Y-99499706D01*
X152870294Y-99335764D01*
X152677519Y-99206956D01*
X152463318Y-99118231D01*
X152377061Y-99101073D01*
X152434698Y-99043436D01*
X152442339Y-99032000D01*
X155342777Y-99032000D01*
X156021418Y-99710641D01*
X156021418Y-101100000D01*
X156027732Y-101164103D01*
X156046430Y-101225743D01*
X156076794Y-101282550D01*
X156117657Y-101332343D01*
X156167450Y-101373206D01*
X156224257Y-101403570D01*
X156285897Y-101422268D01*
X156350000Y-101428582D01*
X158050000Y-101428582D01*
X158114103Y-101422268D01*
X158175743Y-101403570D01*
X158232550Y-101373206D01*
X158282343Y-101332343D01*
X158323206Y-101282550D01*
X158353570Y-101225743D01*
X158372268Y-101164103D01*
X158378582Y-101100000D01*
X158378582Y-99400000D01*
X158372268Y-99335897D01*
X158353570Y-99274257D01*
X158323206Y-99217450D01*
X158282343Y-99167657D01*
X158232550Y-99126794D01*
X158175743Y-99096430D01*
X158114103Y-99077732D01*
X158050000Y-99071418D01*
X156660641Y-99071418D01*
X155865323Y-98276100D01*
X155851159Y-98258841D01*
X155782333Y-98202357D01*
X155703810Y-98160386D01*
X155618607Y-98134540D01*
X155552205Y-98128000D01*
X155530000Y-98125813D01*
X155507795Y-98128000D01*
X152442339Y-98128000D01*
X152434698Y-98116564D01*
X152333436Y-98015302D01*
X152214364Y-97935741D01*
X152082058Y-97880938D01*
X151941603Y-97853000D01*
X151798397Y-97853000D01*
X151657942Y-97880938D01*
X151525636Y-97935741D01*
X151406564Y-98015302D01*
X151305302Y-98116564D01*
X151225741Y-98235636D01*
X151170938Y-98367942D01*
X151143000Y-98508397D01*
X151143000Y-98651603D01*
X151170938Y-98792058D01*
X151225741Y-98924364D01*
X151305302Y-99043436D01*
X151406564Y-99144698D01*
X151525636Y-99224259D01*
X151532395Y-99227059D01*
X151369706Y-99335764D01*
X151205764Y-99499706D01*
X151076956Y-99692481D01*
X150988231Y-99906682D01*
X150943000Y-100134076D01*
X150757000Y-100134076D01*
X150711769Y-99906682D01*
X150623044Y-99692481D01*
X150494236Y-99499706D01*
X150330294Y-99335764D01*
X150137519Y-99206956D01*
X149923318Y-99118231D01*
X149695924Y-99073000D01*
X149464076Y-99073000D01*
X149236682Y-99118231D01*
X149022481Y-99206956D01*
X148829706Y-99335764D01*
X148665764Y-99499706D01*
X148536956Y-99692481D01*
X148448231Y-99906682D01*
X148403000Y-100134076D01*
X148217000Y-100134076D01*
X148171769Y-99906682D01*
X148083044Y-99692481D01*
X147954236Y-99499706D01*
X147790294Y-99335764D01*
X147597519Y-99206956D01*
X147383318Y-99118231D01*
X147155924Y-99073000D01*
X146924076Y-99073000D01*
X146696682Y-99118231D01*
X146482481Y-99206956D01*
X146289706Y-99335764D01*
X146125764Y-99499706D01*
X145996956Y-99692481D01*
X145908231Y-99906682D01*
X145863000Y-100134076D01*
X145677000Y-100134076D01*
X145631769Y-99906682D01*
X145543044Y-99692481D01*
X145414236Y-99499706D01*
X145250294Y-99335764D01*
X145057519Y-99206956D01*
X144843318Y-99118231D01*
X144615924Y-99073000D01*
X144384076Y-99073000D01*
X144156682Y-99118231D01*
X143942481Y-99206956D01*
X143749706Y-99335764D01*
X143585764Y-99499706D01*
X143456956Y-99692481D01*
X143368231Y-99906682D01*
X143323000Y-100134076D01*
X143137000Y-100134076D01*
X143091769Y-99906682D01*
X143003044Y-99692481D01*
X142874236Y-99499706D01*
X142710294Y-99335764D01*
X142517519Y-99206956D01*
X142303318Y-99118231D01*
X142075924Y-99073000D01*
X141844076Y-99073000D01*
X141616682Y-99118231D01*
X141402481Y-99206956D01*
X141209706Y-99335764D01*
X141045764Y-99499706D01*
X140916956Y-99692481D01*
X140828231Y-99906682D01*
X140783000Y-100134076D01*
X140597000Y-100134076D01*
X140551769Y-99906682D01*
X140463044Y-99692481D01*
X140334236Y-99499706D01*
X140170294Y-99335764D01*
X139977519Y-99206956D01*
X139763318Y-99118231D01*
X139535924Y-99073000D01*
X139304076Y-99073000D01*
X139076682Y-99118231D01*
X138862481Y-99206956D01*
X138669706Y-99335764D01*
X138505764Y-99499706D01*
X138376956Y-99692481D01*
X138288231Y-99906682D01*
X138243000Y-100134076D01*
X138057000Y-100134076D01*
X138011769Y-99906682D01*
X137923044Y-99692481D01*
X137794236Y-99499706D01*
X137630294Y-99335764D01*
X137437519Y-99206956D01*
X137223318Y-99118231D01*
X136995924Y-99073000D01*
X136764076Y-99073000D01*
X136536682Y-99118231D01*
X136322481Y-99206956D01*
X136129706Y-99335764D01*
X135965764Y-99499706D01*
X135836956Y-99692481D01*
X135748231Y-99906682D01*
X135703000Y-100134076D01*
X135517000Y-100134076D01*
X135471769Y-99906682D01*
X135383044Y-99692481D01*
X135254236Y-99499706D01*
X135090294Y-99335764D01*
X134897519Y-99206956D01*
X134683318Y-99118231D01*
X134455924Y-99073000D01*
X134224076Y-99073000D01*
X133996682Y-99118231D01*
X133782481Y-99206956D01*
X133589706Y-99335764D01*
X133425764Y-99499706D01*
X133296956Y-99692481D01*
X133208231Y-99906682D01*
X133163000Y-100134076D01*
X132977000Y-100134076D01*
X132931769Y-99906682D01*
X132843044Y-99692481D01*
X132714236Y-99499706D01*
X132550294Y-99335764D01*
X132357519Y-99206956D01*
X132143318Y-99118231D01*
X131915924Y-99073000D01*
X131684076Y-99073000D01*
X131456682Y-99118231D01*
X131242481Y-99206956D01*
X131049706Y-99335764D01*
X130885764Y-99499706D01*
X130756956Y-99692481D01*
X130688736Y-99857179D01*
X130604157Y-99618748D01*
X130455178Y-99368645D01*
X130260269Y-99152412D01*
X130026920Y-98978359D01*
X129764099Y-98853175D01*
X129616890Y-98808524D01*
X129387000Y-98929845D01*
X129133000Y-98929845D01*
X128903110Y-98808524D01*
X128755901Y-98853175D01*
X128493080Y-98978359D01*
X128259731Y-99152412D01*
X128064822Y-99368645D01*
X127915843Y-99618748D01*
X127831264Y-99857179D01*
X127763044Y-99692481D01*
X127634236Y-99499706D01*
X127470294Y-99335764D01*
X127277519Y-99206956D01*
X127063318Y-99118231D01*
X126835924Y-99073000D01*
X126604076Y-99073000D01*
X126376682Y-99118231D01*
X126271162Y-99161939D01*
X124777620Y-97668397D01*
X139513000Y-97668397D01*
X139513000Y-97811603D01*
X139540938Y-97952058D01*
X139595741Y-98084364D01*
X139675302Y-98203436D01*
X139776564Y-98304698D01*
X139895636Y-98384259D01*
X140027942Y-98439062D01*
X140168397Y-98467000D01*
X140311603Y-98467000D01*
X140452058Y-98439062D01*
X140584364Y-98384259D01*
X140703436Y-98304698D01*
X140804698Y-98203436D01*
X140884259Y-98084364D01*
X140939062Y-97952058D01*
X140967000Y-97811603D01*
X140967000Y-97712224D01*
X141117224Y-97562000D01*
X157002777Y-97562000D01*
X157045683Y-97604907D01*
X157043000Y-97618397D01*
X157043000Y-97761603D01*
X157070938Y-97902058D01*
X157125741Y-98034364D01*
X157205302Y-98153436D01*
X157306564Y-98254698D01*
X157425636Y-98334259D01*
X157557942Y-98389062D01*
X157698397Y-98417000D01*
X157841603Y-98417000D01*
X157982058Y-98389062D01*
X158114364Y-98334259D01*
X158233436Y-98254698D01*
X158334698Y-98153436D01*
X158414259Y-98034364D01*
X158469062Y-97902058D01*
X158497000Y-97761603D01*
X158497000Y-97618397D01*
X158469062Y-97477942D01*
X158414259Y-97345636D01*
X158334698Y-97226564D01*
X158233436Y-97125302D01*
X158114364Y-97045741D01*
X157982058Y-96990938D01*
X157841603Y-96963000D01*
X157698397Y-96963000D01*
X157684907Y-96965683D01*
X157525323Y-96806100D01*
X157511159Y-96788841D01*
X157442333Y-96732357D01*
X157363810Y-96690386D01*
X157278607Y-96664540D01*
X157212205Y-96658000D01*
X157190000Y-96655813D01*
X157167795Y-96658000D01*
X140952205Y-96658000D01*
X140930000Y-96655813D01*
X140841392Y-96664540D01*
X140777868Y-96683810D01*
X140756190Y-96690386D01*
X140677667Y-96732357D01*
X140608841Y-96788841D01*
X140594681Y-96806095D01*
X140375138Y-97025638D01*
X140311603Y-97013000D01*
X140168397Y-97013000D01*
X140027942Y-97040938D01*
X139895636Y-97095741D01*
X139776564Y-97175302D01*
X139675302Y-97276564D01*
X139595741Y-97395636D01*
X139540938Y-97527942D01*
X139513000Y-97668397D01*
X124777620Y-97668397D01*
X122302000Y-95192777D01*
X122302000Y-93856751D01*
X122403000Y-93814916D01*
X122403000Y-93841603D01*
X122430938Y-93982058D01*
X122485741Y-94114364D01*
X122565302Y-94233436D01*
X122666564Y-94334698D01*
X122785636Y-94414259D01*
X122917942Y-94469062D01*
X123058397Y-94497000D01*
X123201603Y-94497000D01*
X123215093Y-94494317D01*
X123844685Y-95123910D01*
X123858841Y-95141159D01*
X123927667Y-95197643D01*
X124006190Y-95239614D01*
X124071562Y-95259444D01*
X124091392Y-95265460D01*
X124179999Y-95274187D01*
X124202204Y-95272000D01*
X129292777Y-95272000D01*
X129485683Y-95464907D01*
X129483000Y-95478397D01*
X129483000Y-95621603D01*
X129510938Y-95762058D01*
X129565741Y-95894364D01*
X129645302Y-96013436D01*
X129689866Y-96058000D01*
X125822339Y-96058000D01*
X125814698Y-96046564D01*
X125713436Y-95945302D01*
X125594364Y-95865741D01*
X125462058Y-95810938D01*
X125321603Y-95783000D01*
X125178397Y-95783000D01*
X125037942Y-95810938D01*
X124905636Y-95865741D01*
X124786564Y-95945302D01*
X124685302Y-96046564D01*
X124605741Y-96165636D01*
X124550938Y-96297942D01*
X124523000Y-96438397D01*
X124523000Y-96581603D01*
X124550938Y-96722058D01*
X124605741Y-96854364D01*
X124685302Y-96973436D01*
X124786564Y-97074698D01*
X124905636Y-97154259D01*
X125037942Y-97209062D01*
X125178397Y-97237000D01*
X125321603Y-97237000D01*
X125462058Y-97209062D01*
X125594364Y-97154259D01*
X125713436Y-97074698D01*
X125814698Y-96973436D01*
X125822339Y-96962000D01*
X130300797Y-96962000D01*
X130323002Y-96964187D01*
X130345207Y-96962000D01*
X130411609Y-96955460D01*
X130496812Y-96929614D01*
X130575335Y-96887643D01*
X130644161Y-96831159D01*
X130658325Y-96813900D01*
X131703828Y-95768397D01*
X132333000Y-95768397D01*
X132333000Y-95911603D01*
X132360938Y-96052058D01*
X132415741Y-96184364D01*
X132495302Y-96303436D01*
X132596564Y-96404698D01*
X132715636Y-96484259D01*
X132847942Y-96539062D01*
X132988397Y-96567000D01*
X133131603Y-96567000D01*
X133272058Y-96539062D01*
X133404364Y-96484259D01*
X133523436Y-96404698D01*
X133624698Y-96303436D01*
X133632339Y-96292000D01*
X136747795Y-96292000D01*
X136770000Y-96294187D01*
X136792205Y-96292000D01*
X136858607Y-96285460D01*
X136943810Y-96259614D01*
X137022333Y-96217643D01*
X137091159Y-96161159D01*
X137105321Y-96143902D01*
X137135313Y-96113911D01*
X137135317Y-96113906D01*
X137784907Y-95464317D01*
X137798397Y-95467000D01*
X137941603Y-95467000D01*
X138082058Y-95439062D01*
X138214364Y-95384259D01*
X138333436Y-95304698D01*
X138434698Y-95203436D01*
X138514259Y-95084364D01*
X138569062Y-94952058D01*
X138597000Y-94811603D01*
X138597000Y-94668397D01*
X138569062Y-94527942D01*
X138514259Y-94395636D01*
X138434698Y-94276564D01*
X138333436Y-94175302D01*
X138214364Y-94095741D01*
X138082058Y-94040938D01*
X137941603Y-94013000D01*
X137798397Y-94013000D01*
X137657942Y-94040938D01*
X137525636Y-94095741D01*
X137406564Y-94175302D01*
X137305302Y-94276564D01*
X137225741Y-94395636D01*
X137170938Y-94527942D01*
X137143000Y-94668397D01*
X137143000Y-94811603D01*
X137145683Y-94825093D01*
X136582777Y-95388000D01*
X133632339Y-95388000D01*
X133624698Y-95376564D01*
X133523436Y-95275302D01*
X133404364Y-95195741D01*
X133272058Y-95140938D01*
X133131603Y-95113000D01*
X132988397Y-95113000D01*
X132847942Y-95140938D01*
X132715636Y-95195741D01*
X132596564Y-95275302D01*
X132495302Y-95376564D01*
X132415741Y-95495636D01*
X132360938Y-95627942D01*
X132333000Y-95768397D01*
X131703828Y-95768397D01*
X132430226Y-95042000D01*
X134147661Y-95042000D01*
X134155302Y-95053436D01*
X134256564Y-95154698D01*
X134375636Y-95234259D01*
X134507942Y-95289062D01*
X134648397Y-95317000D01*
X134791603Y-95317000D01*
X134932058Y-95289062D01*
X135064364Y-95234259D01*
X135183436Y-95154698D01*
X135284698Y-95053436D01*
X135364259Y-94934364D01*
X135419062Y-94802058D01*
X135446846Y-94662377D01*
X136100826Y-94008397D01*
X141683000Y-94008397D01*
X141683000Y-94151603D01*
X141710938Y-94292058D01*
X141765741Y-94424364D01*
X141845302Y-94543436D01*
X141946564Y-94644698D01*
X142065636Y-94724259D01*
X142197942Y-94779062D01*
X142338397Y-94807000D01*
X142481603Y-94807000D01*
X142495093Y-94804317D01*
X143414685Y-95723910D01*
X143428841Y-95741159D01*
X143497667Y-95797643D01*
X143566037Y-95834187D01*
X143576190Y-95839614D01*
X143661392Y-95865460D01*
X143749999Y-95874187D01*
X143772204Y-95872000D01*
X150967661Y-95872000D01*
X150975302Y-95883436D01*
X151076564Y-95984698D01*
X151195636Y-96064259D01*
X151327942Y-96119062D01*
X151468397Y-96147000D01*
X151611603Y-96147000D01*
X151752058Y-96119062D01*
X151884364Y-96064259D01*
X152003436Y-95984698D01*
X152104698Y-95883436D01*
X152184259Y-95764364D01*
X152239062Y-95632058D01*
X152267000Y-95491603D01*
X152267000Y-95348397D01*
X152239062Y-95207942D01*
X152184259Y-95075636D01*
X152104698Y-94956564D01*
X152003436Y-94855302D01*
X151884364Y-94775741D01*
X151752058Y-94720938D01*
X151611603Y-94693000D01*
X151468397Y-94693000D01*
X151327942Y-94720938D01*
X151195636Y-94775741D01*
X151076564Y-94855302D01*
X150975302Y-94956564D01*
X150967661Y-94968000D01*
X143937225Y-94968000D01*
X143134317Y-94165093D01*
X143137000Y-94151603D01*
X143137000Y-94008397D01*
X143109062Y-93867942D01*
X143054259Y-93735636D01*
X142974698Y-93616564D01*
X142873436Y-93515302D01*
X142754364Y-93435741D01*
X142622058Y-93380938D01*
X142481603Y-93353000D01*
X142338397Y-93353000D01*
X142197942Y-93380938D01*
X142065636Y-93435741D01*
X141946564Y-93515302D01*
X141845302Y-93616564D01*
X141765741Y-93735636D01*
X141710938Y-93867942D01*
X141683000Y-94008397D01*
X136100826Y-94008397D01*
X138827224Y-91282000D01*
X139477661Y-91282000D01*
X139485302Y-91293436D01*
X139586564Y-91394698D01*
X139705636Y-91474259D01*
X139837942Y-91529062D01*
X139978397Y-91557000D01*
X140121603Y-91557000D01*
X140262058Y-91529062D01*
X140394364Y-91474259D01*
X140513436Y-91394698D01*
X140614698Y-91293436D01*
X140694259Y-91174364D01*
X140749062Y-91042058D01*
X140777000Y-90901603D01*
X140777000Y-90758397D01*
X140754113Y-90643337D01*
X142803919Y-92693143D01*
X142818079Y-92710397D01*
X142886905Y-92766881D01*
X142965428Y-92808852D01*
X143050630Y-92834698D01*
X143139238Y-92843425D01*
X143161443Y-92841238D01*
X144387195Y-92841238D01*
X144394836Y-92852674D01*
X144496098Y-92953936D01*
X144615170Y-93033497D01*
X144747476Y-93088300D01*
X144887931Y-93116238D01*
X145031137Y-93116238D01*
X145171592Y-93088300D01*
X145303898Y-93033497D01*
X145422970Y-92953936D01*
X145524232Y-92852674D01*
X145603793Y-92733602D01*
X145658596Y-92601296D01*
X145686534Y-92460841D01*
X145686534Y-92317635D01*
X145658596Y-92177180D01*
X145616413Y-92075342D01*
X145714364Y-92034769D01*
X145833436Y-91955208D01*
X145934698Y-91853946D01*
X146014259Y-91734874D01*
X146069062Y-91602568D01*
X146097000Y-91462113D01*
X146097000Y-91318907D01*
X146069062Y-91178452D01*
X146014259Y-91046146D01*
X145934698Y-90927074D01*
X145833436Y-90825812D01*
X145714364Y-90746251D01*
X145582058Y-90691448D01*
X145441603Y-90663510D01*
X145298397Y-90663510D01*
X145157942Y-90691448D01*
X145025636Y-90746251D01*
X144906564Y-90825812D01*
X144805302Y-90927074D01*
X144792436Y-90946329D01*
X144742731Y-90961407D01*
X144711450Y-90970896D01*
X144632927Y-91012867D01*
X144564101Y-91069351D01*
X144549941Y-91086605D01*
X144198547Y-91438000D01*
X143463634Y-91438000D01*
X142627634Y-90602000D01*
X143107661Y-90602000D01*
X143115302Y-90613436D01*
X143216564Y-90714698D01*
X143335636Y-90794259D01*
X143467942Y-90849062D01*
X143608397Y-90877000D01*
X143751603Y-90877000D01*
X143892058Y-90849062D01*
X144024364Y-90794259D01*
X144143436Y-90714698D01*
X144244698Y-90613436D01*
X144324259Y-90494364D01*
X144379062Y-90362058D01*
X144407000Y-90221603D01*
X144407000Y-90078397D01*
X144379062Y-89937942D01*
X144324259Y-89805636D01*
X144244698Y-89686564D01*
X144143436Y-89585302D01*
X144024364Y-89505741D01*
X143892058Y-89450938D01*
X143751603Y-89423000D01*
X143608397Y-89423000D01*
X143467942Y-89450938D01*
X143335636Y-89505741D01*
X143216564Y-89585302D01*
X143115302Y-89686564D01*
X143107661Y-89698000D01*
X142360044Y-89698000D01*
X140838119Y-88176076D01*
X140823959Y-88158822D01*
X140755133Y-88102338D01*
X140755129Y-88102336D01*
X140676609Y-88060366D01*
X140591407Y-88034520D01*
X140502800Y-88025793D01*
X140480585Y-88027981D01*
X137598735Y-88027981D01*
X137663283Y-87984851D01*
X137764545Y-87883589D01*
X137772186Y-87872153D01*
X141076046Y-87872153D01*
X142467797Y-89263905D01*
X142481957Y-89281159D01*
X142550783Y-89337643D01*
X142621514Y-89375449D01*
X142629306Y-89379614D01*
X142714508Y-89405460D01*
X142803116Y-89414187D01*
X142825321Y-89412000D01*
X149262777Y-89412000D01*
X151125683Y-91274907D01*
X151123000Y-91288397D01*
X151123000Y-91431603D01*
X151150938Y-91572058D01*
X151205741Y-91704364D01*
X151285302Y-91823436D01*
X151386564Y-91924698D01*
X151505636Y-92004259D01*
X151637942Y-92059062D01*
X151778397Y-92087000D01*
X151921603Y-92087000D01*
X152062058Y-92059062D01*
X152194364Y-92004259D01*
X152313436Y-91924698D01*
X152414698Y-91823436D01*
X152494259Y-91704364D01*
X152549062Y-91572058D01*
X152577000Y-91431603D01*
X152577000Y-91288397D01*
X152549062Y-91147942D01*
X152494259Y-91015636D01*
X152414698Y-90896564D01*
X152313436Y-90795302D01*
X152194364Y-90715741D01*
X152062058Y-90660938D01*
X151921603Y-90633000D01*
X151778397Y-90633000D01*
X151764907Y-90635683D01*
X149785323Y-88656100D01*
X149771159Y-88638841D01*
X149702333Y-88582357D01*
X149623810Y-88540386D01*
X149538607Y-88514540D01*
X149472205Y-88508000D01*
X149450000Y-88505813D01*
X149427795Y-88508000D01*
X142990340Y-88508000D01*
X142979340Y-88497000D01*
X142991603Y-88497000D01*
X143132058Y-88469062D01*
X143264364Y-88414259D01*
X143383436Y-88334698D01*
X143484698Y-88233436D01*
X143564259Y-88114364D01*
X143619062Y-87982058D01*
X143647000Y-87841603D01*
X143647000Y-87698397D01*
X143619062Y-87557942D01*
X143564259Y-87425636D01*
X143484698Y-87306564D01*
X143383436Y-87205302D01*
X143264364Y-87125741D01*
X143132058Y-87070938D01*
X142991603Y-87043000D01*
X142848397Y-87043000D01*
X142834907Y-87045683D01*
X141515323Y-85726100D01*
X141501159Y-85708841D01*
X141432333Y-85652357D01*
X141353810Y-85610386D01*
X141268607Y-85584540D01*
X141202205Y-85578000D01*
X141180000Y-85575813D01*
X141157795Y-85578000D01*
X137027224Y-85578000D01*
X136808507Y-85359284D01*
X136807643Y-85357667D01*
X136751159Y-85288841D01*
X136682333Y-85232357D01*
X136669976Y-85225752D01*
X132818061Y-81373838D01*
X132861769Y-81268318D01*
X132907000Y-81040924D01*
X132907000Y-80809076D01*
X132861769Y-80581682D01*
X132773044Y-80367481D01*
X132644236Y-80174706D01*
X132480294Y-80010764D01*
X132287519Y-79881956D01*
X132073318Y-79793231D01*
X131845924Y-79748000D01*
X131614076Y-79748000D01*
X131386682Y-79793231D01*
X131172481Y-79881956D01*
X130979706Y-80010764D01*
X130815764Y-80174706D01*
X130686956Y-80367481D01*
X130598231Y-80581682D01*
X130553000Y-80809076D01*
X130553000Y-81040924D01*
X130598231Y-81268318D01*
X130686956Y-81482519D01*
X130815764Y-81675294D01*
X130979706Y-81839236D01*
X131172481Y-81968044D01*
X131386682Y-82056769D01*
X131614076Y-82102000D01*
X131845924Y-82102000D01*
X132073318Y-82056769D01*
X132178838Y-82013061D01*
X136079681Y-85913905D01*
X136093841Y-85931159D01*
X136138983Y-85968206D01*
X136504681Y-86333905D01*
X136518841Y-86351159D01*
X136587667Y-86407643D01*
X136665719Y-86449362D01*
X136666190Y-86449614D01*
X136751392Y-86475460D01*
X136840000Y-86484187D01*
X136862205Y-86482000D01*
X140992777Y-86482000D01*
X142195683Y-87684907D01*
X142193000Y-87698397D01*
X142193000Y-87710661D01*
X141598592Y-87116253D01*
X141584428Y-87098994D01*
X141515602Y-87042510D01*
X141437079Y-87000539D01*
X141351876Y-86974693D01*
X141285474Y-86968153D01*
X141263269Y-86965966D01*
X141241064Y-86968153D01*
X137772186Y-86968153D01*
X137764545Y-86956717D01*
X137663283Y-86855455D01*
X137544211Y-86775894D01*
X137411905Y-86721091D01*
X137271450Y-86693153D01*
X137128244Y-86693153D01*
X136987789Y-86721091D01*
X136855483Y-86775894D01*
X136736411Y-86855455D01*
X136635149Y-86956717D01*
X136627508Y-86968153D01*
X133332378Y-86968153D01*
X127738061Y-81373838D01*
X127781769Y-81268318D01*
X127827000Y-81040924D01*
X127827000Y-80809076D01*
X127781769Y-80581682D01*
X127693044Y-80367481D01*
X127564236Y-80174706D01*
X127400294Y-80010764D01*
X127207519Y-79881956D01*
X126993318Y-79793231D01*
X126765924Y-79748000D01*
X126534076Y-79748000D01*
X126306682Y-79793231D01*
X126201162Y-79836939D01*
X125545323Y-79181100D01*
X125531159Y-79163841D01*
X125510638Y-79147000D01*
X129553776Y-79147000D01*
X128922658Y-79778119D01*
G37*
X128922658Y-79778119D02*
X128846682Y-79793231D01*
X128632481Y-79881956D01*
X128439706Y-80010764D01*
X128275764Y-80174706D01*
X128146956Y-80367481D01*
X128058231Y-80581682D01*
X128013000Y-80809076D01*
X128013000Y-81040924D01*
X128058231Y-81268318D01*
X128146956Y-81482519D01*
X128275764Y-81675294D01*
X128439706Y-81839236D01*
X128632481Y-81968044D01*
X128846682Y-82056769D01*
X129074076Y-82102000D01*
X129305924Y-82102000D01*
X129533318Y-82056769D01*
X129563838Y-82044127D01*
X131004049Y-83484339D01*
X131020552Y-83504448D01*
X131100798Y-83570304D01*
X131192350Y-83619239D01*
X131291690Y-83649374D01*
X131395000Y-83659549D01*
X131420881Y-83657000D01*
X131478866Y-83657000D01*
X131516564Y-83694698D01*
X131635636Y-83774259D01*
X131767942Y-83829062D01*
X131908397Y-83857000D01*
X132051603Y-83857000D01*
X132192058Y-83829062D01*
X132324364Y-83774259D01*
X132443436Y-83694698D01*
X132544698Y-83593436D01*
X132624259Y-83474364D01*
X132679062Y-83342058D01*
X132707000Y-83201603D01*
X132707000Y-83058397D01*
X132679062Y-82917942D01*
X132624259Y-82785636D01*
X132544698Y-82666564D01*
X132443436Y-82565302D01*
X132324364Y-82485741D01*
X132192058Y-82430938D01*
X132051603Y-82403000D01*
X131908397Y-82403000D01*
X131767942Y-82430938D01*
X131635636Y-82485741D01*
X131551949Y-82541659D01*
X130309127Y-81298838D01*
X130321769Y-81268318D01*
X130367000Y-81040924D01*
X130367000Y-80809076D01*
X130321769Y-80581682D01*
X130233044Y-80367481D01*
X130104236Y-80174706D01*
X129954377Y-80024847D01*
X130382215Y-79597010D01*
X135038001Y-79597010D01*
X135038001Y-80028471D01*
X135020294Y-80010764D01*
X134827519Y-79881956D01*
X134613318Y-79793231D01*
X134385924Y-79748000D01*
X134154076Y-79748000D01*
X133926682Y-79793231D01*
X133712481Y-79881956D01*
X133519706Y-80010764D01*
X133355764Y-80174706D01*
X133226956Y-80367481D01*
X133138231Y-80581682D01*
X133093000Y-80809076D01*
X133093000Y-81040924D01*
X133138231Y-81268318D01*
X133226956Y-81482519D01*
X133355764Y-81675294D01*
X133519706Y-81839236D01*
X133712481Y-81968044D01*
X133926682Y-82056769D01*
X134154076Y-82102000D01*
X134385924Y-82102000D01*
X134613318Y-82056769D01*
X134718838Y-82013061D01*
X137799685Y-85093910D01*
X137813841Y-85111159D01*
X137882667Y-85167643D01*
X137961190Y-85209614D01*
X138026562Y-85229444D01*
X138046392Y-85235460D01*
X138134999Y-85244187D01*
X138157204Y-85242000D01*
X145372777Y-85242000D01*
X146583653Y-86452877D01*
X146580970Y-86466367D01*
X146580970Y-86609573D01*
X146608908Y-86750028D01*
X146663711Y-86882334D01*
X146743272Y-87001406D01*
X146844534Y-87102668D01*
X146963606Y-87182229D01*
X147095912Y-87237032D01*
X147236367Y-87264970D01*
X147379573Y-87264970D01*
X147520028Y-87237032D01*
X147652334Y-87182229D01*
X147771406Y-87102668D01*
X147872668Y-87001406D01*
X147952229Y-86882334D01*
X148007032Y-86750028D01*
X148034970Y-86609573D01*
X148034970Y-86466367D01*
X148007032Y-86325912D01*
X147952229Y-86193606D01*
X147872668Y-86074534D01*
X147771406Y-85973272D01*
X147652334Y-85893711D01*
X147520028Y-85838908D01*
X147379573Y-85810970D01*
X147236367Y-85810970D01*
X147222877Y-85813653D01*
X145895323Y-84486100D01*
X145881159Y-84468841D01*
X145812333Y-84412357D01*
X145733810Y-84370386D01*
X145648607Y-84344540D01*
X145582205Y-84338000D01*
X145560000Y-84335813D01*
X145537795Y-84338000D01*
X138322225Y-84338000D01*
X137087069Y-83102844D01*
X137204364Y-83054259D01*
X137323436Y-82974698D01*
X137424698Y-82873436D01*
X137504259Y-82754364D01*
X137559062Y-82622058D01*
X137587000Y-82481603D01*
X137587000Y-82338397D01*
X137559062Y-82197942D01*
X137504259Y-82065636D01*
X137424698Y-81946564D01*
X137414672Y-81936538D01*
X137560294Y-81839236D01*
X137724236Y-81675294D01*
X137853044Y-81482519D01*
X137941769Y-81268318D01*
X137987000Y-81040924D01*
X137987000Y-80809076D01*
X138173000Y-80809076D01*
X138173000Y-81040924D01*
X138218231Y-81268318D01*
X138306956Y-81482519D01*
X138435764Y-81675294D01*
X138599706Y-81839236D01*
X138792481Y-81968044D01*
X139006682Y-82056769D01*
X139234076Y-82102000D01*
X139465924Y-82102000D01*
X139693318Y-82056769D01*
X139907519Y-81968044D01*
X140100294Y-81839236D01*
X140264236Y-81675294D01*
X140393044Y-81482519D01*
X140481769Y-81268318D01*
X140527000Y-81040924D01*
X140527000Y-80809076D01*
X140713000Y-80809076D01*
X140713000Y-81040924D01*
X140758231Y-81268318D01*
X140846956Y-81482519D01*
X140975764Y-81675294D01*
X141139706Y-81839236D01*
X141332481Y-81968044D01*
X141546682Y-82056769D01*
X141774076Y-82102000D01*
X142005924Y-82102000D01*
X142233318Y-82056769D01*
X142447519Y-81968044D01*
X142640294Y-81839236D01*
X142804236Y-81675294D01*
X142933044Y-81482519D01*
X143021769Y-81268318D01*
X143067000Y-81040924D01*
X143067000Y-80809076D01*
X143253000Y-80809076D01*
X143253000Y-81040924D01*
X143298231Y-81268318D01*
X143386956Y-81482519D01*
X143515764Y-81675294D01*
X143679706Y-81839236D01*
X143872481Y-81968044D01*
X144086682Y-82056769D01*
X144314076Y-82102000D01*
X144545924Y-82102000D01*
X144773318Y-82056769D01*
X144987519Y-81968044D01*
X145180294Y-81839236D01*
X145344236Y-81675294D01*
X145473044Y-81482519D01*
X145561769Y-81268318D01*
X145607000Y-81040924D01*
X145607000Y-80809076D01*
X145793000Y-80809076D01*
X145793000Y-81040924D01*
X145838231Y-81268318D01*
X145926956Y-81482519D01*
X146055764Y-81675294D01*
X146219706Y-81839236D01*
X146412481Y-81968044D01*
X146626682Y-82056769D01*
X146854076Y-82102000D01*
X147085924Y-82102000D01*
X147313318Y-82056769D01*
X147527519Y-81968044D01*
X147720294Y-81839236D01*
X147884236Y-81675294D01*
X148013044Y-81482519D01*
X148101769Y-81268318D01*
X148147000Y-81040924D01*
X148147000Y-80809076D01*
X148333000Y-80809076D01*
X148333000Y-81040924D01*
X148378231Y-81268318D01*
X148466956Y-81482519D01*
X148595764Y-81675294D01*
X148759706Y-81839236D01*
X148952481Y-81968044D01*
X149166682Y-82056769D01*
X149394076Y-82102000D01*
X149625924Y-82102000D01*
X149853318Y-82056769D01*
X150067519Y-81968044D01*
X150260294Y-81839236D01*
X150424236Y-81675294D01*
X150553044Y-81482519D01*
X150641769Y-81268318D01*
X150687000Y-81040924D01*
X150687000Y-80809076D01*
X150873000Y-80809076D01*
X150873000Y-81040924D01*
X150918231Y-81268318D01*
X151006956Y-81482519D01*
X151135764Y-81675294D01*
X151299706Y-81839236D01*
X151492481Y-81968044D01*
X151706682Y-82056769D01*
X151934076Y-82102000D01*
X152165924Y-82102000D01*
X152393318Y-82056769D01*
X152607519Y-81968044D01*
X152800294Y-81839236D01*
X152964236Y-81675294D01*
X153093044Y-81482519D01*
X153181769Y-81268318D01*
X153227000Y-81040924D01*
X153227000Y-80809076D01*
X153413000Y-80809076D01*
X153413000Y-81040924D01*
X153458231Y-81268318D01*
X153546956Y-81482519D01*
X153675764Y-81675294D01*
X153839706Y-81839236D01*
X154032481Y-81968044D01*
X154246682Y-82056769D01*
X154474076Y-82102000D01*
X154705924Y-82102000D01*
X154933318Y-82056769D01*
X155147519Y-81968044D01*
X155340294Y-81839236D01*
X155504236Y-81675294D01*
X155633044Y-81482519D01*
X155721769Y-81268318D01*
X155767000Y-81040924D01*
X155767000Y-80809076D01*
X155953000Y-80809076D01*
X155953000Y-81040924D01*
X155998231Y-81268318D01*
X156086956Y-81482519D01*
X156215764Y-81675294D01*
X156379706Y-81839236D01*
X156572481Y-81968044D01*
X156786682Y-82056769D01*
X157014076Y-82102000D01*
X157245924Y-82102000D01*
X157473318Y-82056769D01*
X157687519Y-81968044D01*
X157880294Y-81839236D01*
X158044236Y-81675294D01*
X158173044Y-81482519D01*
X158261769Y-81268318D01*
X158307000Y-81040924D01*
X158307000Y-80809076D01*
X158261769Y-80581682D01*
X158173044Y-80367481D01*
X158044236Y-80174706D01*
X157880294Y-80010764D01*
X157687519Y-79881956D01*
X157473318Y-79793231D01*
X157245924Y-79748000D01*
X157014076Y-79748000D01*
X156786682Y-79793231D01*
X156572481Y-79881956D01*
X156379706Y-80010764D01*
X156215764Y-80174706D01*
X156086956Y-80367481D01*
X155998231Y-80581682D01*
X155953000Y-80809076D01*
X155767000Y-80809076D01*
X155721769Y-80581682D01*
X155633044Y-80367481D01*
X155504236Y-80174706D01*
X155340294Y-80010764D01*
X155147519Y-79881956D01*
X154933318Y-79793231D01*
X154705924Y-79748000D01*
X154474076Y-79748000D01*
X154246682Y-79793231D01*
X154032481Y-79881956D01*
X153839706Y-80010764D01*
X153675764Y-80174706D01*
X153546956Y-80367481D01*
X153458231Y-80581682D01*
X153413000Y-80809076D01*
X153227000Y-80809076D01*
X153181769Y-80581682D01*
X153093044Y-80367481D01*
X152964236Y-80174706D01*
X152800294Y-80010764D01*
X152607519Y-79881956D01*
X152393318Y-79793231D01*
X152165924Y-79748000D01*
X151934076Y-79748000D01*
X151706682Y-79793231D01*
X151492481Y-79881956D01*
X151299706Y-80010764D01*
X151135764Y-80174706D01*
X151006956Y-80367481D01*
X150918231Y-80581682D01*
X150873000Y-80809076D01*
X150687000Y-80809076D01*
X150641769Y-80581682D01*
X150553044Y-80367481D01*
X150424236Y-80174706D01*
X150260294Y-80010764D01*
X150067519Y-79881956D01*
X149853318Y-79793231D01*
X149625924Y-79748000D01*
X149394076Y-79748000D01*
X149166682Y-79793231D01*
X148952481Y-79881956D01*
X148759706Y-80010764D01*
X148595764Y-80174706D01*
X148466956Y-80367481D01*
X148378231Y-80581682D01*
X148333000Y-80809076D01*
X148147000Y-80809076D01*
X148101769Y-80581682D01*
X148013044Y-80367481D01*
X147884236Y-80174706D01*
X147720294Y-80010764D01*
X147527519Y-79881956D01*
X147313318Y-79793231D01*
X147085924Y-79748000D01*
X146854076Y-79748000D01*
X146626682Y-79793231D01*
X146412481Y-79881956D01*
X146219706Y-80010764D01*
X146055764Y-80174706D01*
X145926956Y-80367481D01*
X145838231Y-80581682D01*
X145793000Y-80809076D01*
X145607000Y-80809076D01*
X145561769Y-80581682D01*
X145473044Y-80367481D01*
X145344236Y-80174706D01*
X145180294Y-80010764D01*
X144987519Y-79881956D01*
X144773318Y-79793231D01*
X144545924Y-79748000D01*
X144314076Y-79748000D01*
X144086682Y-79793231D01*
X143872481Y-79881956D01*
X143679706Y-80010764D01*
X143515764Y-80174706D01*
X143386956Y-80367481D01*
X143298231Y-80581682D01*
X143253000Y-80809076D01*
X143067000Y-80809076D01*
X143021769Y-80581682D01*
X142933044Y-80367481D01*
X142804236Y-80174706D01*
X142640294Y-80010764D01*
X142447519Y-79881956D01*
X142233318Y-79793231D01*
X142005924Y-79748000D01*
X141774076Y-79748000D01*
X141546682Y-79793231D01*
X141332481Y-79881956D01*
X141139706Y-80010764D01*
X140975764Y-80174706D01*
X140846956Y-80367481D01*
X140758231Y-80581682D01*
X140713000Y-80809076D01*
X140527000Y-80809076D01*
X140481769Y-80581682D01*
X140393044Y-80367481D01*
X140264236Y-80174706D01*
X140100294Y-80010764D01*
X139907519Y-79881956D01*
X139693318Y-79793231D01*
X139465924Y-79748000D01*
X139234076Y-79748000D01*
X139006682Y-79793231D01*
X138792481Y-79881956D01*
X138599706Y-80010764D01*
X138435764Y-80174706D01*
X138306956Y-80367481D01*
X138218231Y-80581682D01*
X138173000Y-80809076D01*
X137987000Y-80809076D01*
X137941769Y-80581682D01*
X137853044Y-80367481D01*
X137724236Y-80174706D01*
X137560294Y-80010764D01*
X137367519Y-79881956D01*
X137153318Y-79793231D01*
X136925924Y-79748000D01*
X136694076Y-79748000D01*
X136466682Y-79793231D01*
X136252481Y-79881956D01*
X136059706Y-80010764D01*
X135942000Y-80128470D01*
X135942000Y-79422204D01*
X135944187Y-79399999D01*
X135935460Y-79311392D01*
X135929444Y-79291562D01*
X135909614Y-79226190D01*
X135867643Y-79147667D01*
X135867096Y-79147000D01*
X158833001Y-79147000D01*
X158833000Y-102093000D01*
X119767159Y-102093000D01*
X119767985Y-100134076D01*
X120463000Y-100134076D01*
X120463000Y-100365924D01*
X120508231Y-100593318D01*
X120596956Y-100807519D01*
X120725764Y-101000294D01*
X120889706Y-101164236D01*
X121082481Y-101293044D01*
X121296682Y-101381769D01*
X121524076Y-101427000D01*
X121755924Y-101427000D01*
X121983318Y-101381769D01*
X122197519Y-101293044D01*
X122390294Y-101164236D01*
X122554236Y-101000294D01*
X122683044Y-100807519D01*
X122771769Y-100593318D01*
X122817000Y-100365924D01*
X122817000Y-100134076D01*
X123003000Y-100134076D01*
X123003000Y-100365924D01*
X123048231Y-100593318D01*
X123136956Y-100807519D01*
X123265764Y-101000294D01*
X123429706Y-101164236D01*
X123622481Y-101293044D01*
X123836682Y-101381769D01*
X124064076Y-101427000D01*
X124295924Y-101427000D01*
X124523318Y-101381769D01*
X124737519Y-101293044D01*
X124930294Y-101164236D01*
X125094236Y-101000294D01*
X125223044Y-100807519D01*
X125311769Y-100593318D01*
X125357000Y-100365924D01*
X125357000Y-100134076D01*
X125311769Y-99906682D01*
X125223044Y-99692481D01*
X125094236Y-99499706D01*
X124930294Y-99335764D01*
X124737519Y-99206956D01*
X124523318Y-99118231D01*
X124295924Y-99073000D01*
X124064076Y-99073000D01*
X123836682Y-99118231D01*
X123622481Y-99206956D01*
X123429706Y-99335764D01*
X123265764Y-99499706D01*
X123136956Y-99692481D01*
X123048231Y-99906682D01*
X123003000Y-100134076D01*
X122817000Y-100134076D01*
X122771769Y-99906682D01*
X122683044Y-99692481D01*
X122554236Y-99499706D01*
X122390294Y-99335764D01*
X122197519Y-99206956D01*
X121983318Y-99118231D01*
X121755924Y-99073000D01*
X121524076Y-99073000D01*
X121296682Y-99118231D01*
X121082481Y-99206956D01*
X120889706Y-99335764D01*
X120725764Y-99499706D01*
X120596956Y-99692481D01*
X120508231Y-99906682D01*
X120463000Y-100134076D01*
X119767985Y-100134076D01*
X119771548Y-91690771D01*
X120664681Y-92583905D01*
X120678841Y-92601159D01*
X120682868Y-92604464D01*
X120673000Y-92654076D01*
X120673000Y-92885924D01*
X120718231Y-93113318D01*
X120806956Y-93327519D01*
X120935764Y-93520294D01*
X121099706Y-93684236D01*
X121292481Y-93813044D01*
X121398000Y-93856752D01*
X121398001Y-95357785D01*
X121395813Y-95380000D01*
X121404540Y-95468607D01*
X121430386Y-95553809D01*
X121451767Y-95593810D01*
X121472358Y-95632333D01*
X121528842Y-95701159D01*
X121546096Y-95715319D01*
X125631939Y-99801162D01*
X125588231Y-99906682D01*
X125543000Y-100134076D01*
X125543000Y-100365924D01*
X125588231Y-100593318D01*
X125676956Y-100807519D01*
X125805764Y-101000294D01*
X125969706Y-101164236D01*
X126162481Y-101293044D01*
X126376682Y-101381769D01*
X126604076Y-101427000D01*
X126835924Y-101427000D01*
X127063318Y-101381769D01*
X127277519Y-101293044D01*
X127470294Y-101164236D01*
X127634236Y-101000294D01*
X127763044Y-100807519D01*
X127831264Y-100642821D01*
X127915843Y-100881252D01*
X128064822Y-101131355D01*
X128259731Y-101347588D01*
X128493080Y-101521641D01*
X128755901Y-101646825D01*
X128903110Y-101691476D01*
X129133000Y-101570155D01*
X129133000Y-100377000D01*
X129113000Y-100377000D01*
X129113000Y-100123000D01*
X129133000Y-100123000D01*
X129133000Y-98929845D01*
X129387000Y-98929845D01*
X129387000Y-100123000D01*
X129407000Y-100123000D01*
X129407000Y-100377000D01*
X129387000Y-100377000D01*
X129387000Y-101570155D01*
X129616890Y-101691476D01*
X129764099Y-101646825D01*
X130026920Y-101521641D01*
X130260269Y-101347588D01*
X130455178Y-101131355D01*
X130604157Y-100881252D01*
X130688736Y-100642821D01*
X130756956Y-100807519D01*
X130885764Y-101000294D01*
X131049706Y-101164236D01*
X131242481Y-101293044D01*
X131456682Y-101381769D01*
X131684076Y-101427000D01*
X131915924Y-101427000D01*
X132143318Y-101381769D01*
X132357519Y-101293044D01*
X132550294Y-101164236D01*
X132714236Y-101000294D01*
X132843044Y-100807519D01*
X132931769Y-100593318D01*
X132977000Y-100365924D01*
X132977000Y-100134076D01*
X133163000Y-100134076D01*
X133163000Y-100365924D01*
X133208231Y-100593318D01*
X133296956Y-100807519D01*
X133425764Y-101000294D01*
X133589706Y-101164236D01*
X133782481Y-101293044D01*
X133996682Y-101381769D01*
X134224076Y-101427000D01*
X134455924Y-101427000D01*
X134683318Y-101381769D01*
X134897519Y-101293044D01*
X135090294Y-101164236D01*
X135254236Y-101000294D01*
X135383044Y-100807519D01*
X135471769Y-100593318D01*
X135517000Y-100365924D01*
X135517000Y-100134076D01*
X135703000Y-100134076D01*
X135703000Y-100365924D01*
X135748231Y-100593318D01*
X135836956Y-100807519D01*
X135965764Y-101000294D01*
X136129706Y-101164236D01*
X136322481Y-101293044D01*
X136536682Y-101381769D01*
X136764076Y-101427000D01*
X136995924Y-101427000D01*
X137223318Y-101381769D01*
X137437519Y-101293044D01*
X137630294Y-101164236D01*
X137794236Y-101000294D01*
X137923044Y-100807519D01*
X138011769Y-100593318D01*
X138057000Y-100365924D01*
X138057000Y-100134076D01*
X138243000Y-100134076D01*
X138243000Y-100365924D01*
X138288231Y-100593318D01*
X138376956Y-100807519D01*
X138505764Y-101000294D01*
X138669706Y-101164236D01*
X138862481Y-101293044D01*
X139076682Y-101381769D01*
X139304076Y-101427000D01*
X139535924Y-101427000D01*
X139763318Y-101381769D01*
X139977519Y-101293044D01*
X140170294Y-101164236D01*
X140334236Y-101000294D01*
X140463044Y-100807519D01*
X140551769Y-100593318D01*
X140597000Y-100365924D01*
X140597000Y-100134076D01*
X140783000Y-100134076D01*
X140783000Y-100365924D01*
X140828231Y-100593318D01*
X140916956Y-100807519D01*
X141045764Y-101000294D01*
X141209706Y-101164236D01*
X141402481Y-101293044D01*
X141616682Y-101381769D01*
X141844076Y-101427000D01*
X142075924Y-101427000D01*
X142303318Y-101381769D01*
X142517519Y-101293044D01*
X142710294Y-101164236D01*
X142874236Y-101000294D01*
X143003044Y-100807519D01*
X143091769Y-100593318D01*
X143137000Y-100365924D01*
X143137000Y-100134076D01*
X143323000Y-100134076D01*
X143323000Y-100365924D01*
X143368231Y-100593318D01*
X143456956Y-100807519D01*
X143585764Y-101000294D01*
X143749706Y-101164236D01*
X143942481Y-101293044D01*
X144156682Y-101381769D01*
X144384076Y-101427000D01*
X144615924Y-101427000D01*
X144843318Y-101381769D01*
X145057519Y-101293044D01*
X145250294Y-101164236D01*
X145414236Y-101000294D01*
X145543044Y-100807519D01*
X145631769Y-100593318D01*
X145677000Y-100365924D01*
X145677000Y-100134076D01*
X145863000Y-100134076D01*
X145863000Y-100365924D01*
X145908231Y-100593318D01*
X145996956Y-100807519D01*
X146125764Y-101000294D01*
X146289706Y-101164236D01*
X146482481Y-101293044D01*
X146696682Y-101381769D01*
X146924076Y-101427000D01*
X147155924Y-101427000D01*
X147383318Y-101381769D01*
X147597519Y-101293044D01*
X147790294Y-101164236D01*
X147954236Y-101000294D01*
X148083044Y-100807519D01*
X148171769Y-100593318D01*
X148217000Y-100365924D01*
X148217000Y-100134076D01*
X148403000Y-100134076D01*
X148403000Y-100365924D01*
X148448231Y-100593318D01*
X148536956Y-100807519D01*
X148665764Y-101000294D01*
X148829706Y-101164236D01*
X149022481Y-101293044D01*
X149236682Y-101381769D01*
X149464076Y-101427000D01*
X149695924Y-101427000D01*
X149923318Y-101381769D01*
X150137519Y-101293044D01*
X150330294Y-101164236D01*
X150494236Y-101000294D01*
X150623044Y-100807519D01*
X150711769Y-100593318D01*
X150757000Y-100365924D01*
X150757000Y-100134076D01*
X150943000Y-100134076D01*
X150943000Y-100365924D01*
X150988231Y-100593318D01*
X151076956Y-100807519D01*
X151205764Y-101000294D01*
X151369706Y-101164236D01*
X151562481Y-101293044D01*
X151776682Y-101381769D01*
X152004076Y-101427000D01*
X152235924Y-101427000D01*
X152463318Y-101381769D01*
X152677519Y-101293044D01*
X152870294Y-101164236D01*
X153034236Y-101000294D01*
X153163044Y-100807519D01*
X153251769Y-100593318D01*
X153297000Y-100365924D01*
X153297000Y-100134076D01*
X153483000Y-100134076D01*
X153483000Y-100365924D01*
X153528231Y-100593318D01*
X153616956Y-100807519D01*
X153745764Y-101000294D01*
X153909706Y-101164236D01*
X154102481Y-101293044D01*
X154316682Y-101381769D01*
X154544076Y-101427000D01*
X154775924Y-101427000D01*
X155003318Y-101381769D01*
X155217519Y-101293044D01*
X155410294Y-101164236D01*
X155574236Y-101000294D01*
X155703044Y-100807519D01*
X155791769Y-100593318D01*
X155837000Y-100365924D01*
X155837000Y-100134076D01*
X155791769Y-99906682D01*
X155703044Y-99692481D01*
X155574236Y-99499706D01*
X155410294Y-99335764D01*
X155217519Y-99206956D01*
X155003318Y-99118231D01*
X154775924Y-99073000D01*
X154544076Y-99073000D01*
X154316682Y-99118231D01*
X154102481Y-99206956D01*
X153909706Y-99335764D01*
X153745764Y-99499706D01*
X153616956Y-99692481D01*
X153528231Y-99906682D01*
X153483000Y-100134076D01*
X153297000Y-100134076D01*
X153251769Y-99906682D01*
X153163044Y-99692481D01*
X153034236Y-99499706D01*
X152870294Y-99335764D01*
X152677519Y-99206956D01*
X152463318Y-99118231D01*
X152377061Y-99101073D01*
X152434698Y-99043436D01*
X152442339Y-99032000D01*
X155342777Y-99032000D01*
X156021418Y-99710641D01*
X156021418Y-101100000D01*
X156027732Y-101164103D01*
X156046430Y-101225743D01*
X156076794Y-101282550D01*
X156117657Y-101332343D01*
X156167450Y-101373206D01*
X156224257Y-101403570D01*
X156285897Y-101422268D01*
X156350000Y-101428582D01*
X158050000Y-101428582D01*
X158114103Y-101422268D01*
X158175743Y-101403570D01*
X158232550Y-101373206D01*
X158282343Y-101332343D01*
X158323206Y-101282550D01*
X158353570Y-101225743D01*
X158372268Y-101164103D01*
X158378582Y-101100000D01*
X158378582Y-99400000D01*
X158372268Y-99335897D01*
X158353570Y-99274257D01*
X158323206Y-99217450D01*
X158282343Y-99167657D01*
X158232550Y-99126794D01*
X158175743Y-99096430D01*
X158114103Y-99077732D01*
X158050000Y-99071418D01*
X156660641Y-99071418D01*
X155865323Y-98276100D01*
X155851159Y-98258841D01*
X155782333Y-98202357D01*
X155703810Y-98160386D01*
X155618607Y-98134540D01*
X155552205Y-98128000D01*
X155530000Y-98125813D01*
X155507795Y-98128000D01*
X152442339Y-98128000D01*
X152434698Y-98116564D01*
X152333436Y-98015302D01*
X152214364Y-97935741D01*
X152082058Y-97880938D01*
X151941603Y-97853000D01*
X151798397Y-97853000D01*
X151657942Y-97880938D01*
X151525636Y-97935741D01*
X151406564Y-98015302D01*
X151305302Y-98116564D01*
X151225741Y-98235636D01*
X151170938Y-98367942D01*
X151143000Y-98508397D01*
X151143000Y-98651603D01*
X151170938Y-98792058D01*
X151225741Y-98924364D01*
X151305302Y-99043436D01*
X151406564Y-99144698D01*
X151525636Y-99224259D01*
X151532395Y-99227059D01*
X151369706Y-99335764D01*
X151205764Y-99499706D01*
X151076956Y-99692481D01*
X150988231Y-99906682D01*
X150943000Y-100134076D01*
X150757000Y-100134076D01*
X150711769Y-99906682D01*
X150623044Y-99692481D01*
X150494236Y-99499706D01*
X150330294Y-99335764D01*
X150137519Y-99206956D01*
X149923318Y-99118231D01*
X149695924Y-99073000D01*
X149464076Y-99073000D01*
X149236682Y-99118231D01*
X149022481Y-99206956D01*
X148829706Y-99335764D01*
X148665764Y-99499706D01*
X148536956Y-99692481D01*
X148448231Y-99906682D01*
X148403000Y-100134076D01*
X148217000Y-100134076D01*
X148171769Y-99906682D01*
X148083044Y-99692481D01*
X147954236Y-99499706D01*
X147790294Y-99335764D01*
X147597519Y-99206956D01*
X147383318Y-99118231D01*
X147155924Y-99073000D01*
X146924076Y-99073000D01*
X146696682Y-99118231D01*
X146482481Y-99206956D01*
X146289706Y-99335764D01*
X146125764Y-99499706D01*
X145996956Y-99692481D01*
X145908231Y-99906682D01*
X145863000Y-100134076D01*
X145677000Y-100134076D01*
X145631769Y-99906682D01*
X145543044Y-99692481D01*
X145414236Y-99499706D01*
X145250294Y-99335764D01*
X145057519Y-99206956D01*
X144843318Y-99118231D01*
X144615924Y-99073000D01*
X144384076Y-99073000D01*
X144156682Y-99118231D01*
X143942481Y-99206956D01*
X143749706Y-99335764D01*
X143585764Y-99499706D01*
X143456956Y-99692481D01*
X143368231Y-99906682D01*
X143323000Y-100134076D01*
X143137000Y-100134076D01*
X143091769Y-99906682D01*
X143003044Y-99692481D01*
X142874236Y-99499706D01*
X142710294Y-99335764D01*
X142517519Y-99206956D01*
X142303318Y-99118231D01*
X142075924Y-99073000D01*
X141844076Y-99073000D01*
X141616682Y-99118231D01*
X141402481Y-99206956D01*
X141209706Y-99335764D01*
X141045764Y-99499706D01*
X140916956Y-99692481D01*
X140828231Y-99906682D01*
X140783000Y-100134076D01*
X140597000Y-100134076D01*
X140551769Y-99906682D01*
X140463044Y-99692481D01*
X140334236Y-99499706D01*
X140170294Y-99335764D01*
X139977519Y-99206956D01*
X139763318Y-99118231D01*
X139535924Y-99073000D01*
X139304076Y-99073000D01*
X139076682Y-99118231D01*
X138862481Y-99206956D01*
X138669706Y-99335764D01*
X138505764Y-99499706D01*
X138376956Y-99692481D01*
X138288231Y-99906682D01*
X138243000Y-100134076D01*
X138057000Y-100134076D01*
X138011769Y-99906682D01*
X137923044Y-99692481D01*
X137794236Y-99499706D01*
X137630294Y-99335764D01*
X137437519Y-99206956D01*
X137223318Y-99118231D01*
X136995924Y-99073000D01*
X136764076Y-99073000D01*
X136536682Y-99118231D01*
X136322481Y-99206956D01*
X136129706Y-99335764D01*
X135965764Y-99499706D01*
X135836956Y-99692481D01*
X135748231Y-99906682D01*
X135703000Y-100134076D01*
X135517000Y-100134076D01*
X135471769Y-99906682D01*
X135383044Y-99692481D01*
X135254236Y-99499706D01*
X135090294Y-99335764D01*
X134897519Y-99206956D01*
X134683318Y-99118231D01*
X134455924Y-99073000D01*
X134224076Y-99073000D01*
X133996682Y-99118231D01*
X133782481Y-99206956D01*
X133589706Y-99335764D01*
X133425764Y-99499706D01*
X133296956Y-99692481D01*
X133208231Y-99906682D01*
X133163000Y-100134076D01*
X132977000Y-100134076D01*
X132931769Y-99906682D01*
X132843044Y-99692481D01*
X132714236Y-99499706D01*
X132550294Y-99335764D01*
X132357519Y-99206956D01*
X132143318Y-99118231D01*
X131915924Y-99073000D01*
X131684076Y-99073000D01*
X131456682Y-99118231D01*
X131242481Y-99206956D01*
X131049706Y-99335764D01*
X130885764Y-99499706D01*
X130756956Y-99692481D01*
X130688736Y-99857179D01*
X130604157Y-99618748D01*
X130455178Y-99368645D01*
X130260269Y-99152412D01*
X130026920Y-98978359D01*
X129764099Y-98853175D01*
X129616890Y-98808524D01*
X129387000Y-98929845D01*
X129133000Y-98929845D01*
X128903110Y-98808524D01*
X128755901Y-98853175D01*
X128493080Y-98978359D01*
X128259731Y-99152412D01*
X128064822Y-99368645D01*
X127915843Y-99618748D01*
X127831264Y-99857179D01*
X127763044Y-99692481D01*
X127634236Y-99499706D01*
X127470294Y-99335764D01*
X127277519Y-99206956D01*
X127063318Y-99118231D01*
X126835924Y-99073000D01*
X126604076Y-99073000D01*
X126376682Y-99118231D01*
X126271162Y-99161939D01*
X124777620Y-97668397D01*
X139513000Y-97668397D01*
X139513000Y-97811603D01*
X139540938Y-97952058D01*
X139595741Y-98084364D01*
X139675302Y-98203436D01*
X139776564Y-98304698D01*
X139895636Y-98384259D01*
X140027942Y-98439062D01*
X140168397Y-98467000D01*
X140311603Y-98467000D01*
X140452058Y-98439062D01*
X140584364Y-98384259D01*
X140703436Y-98304698D01*
X140804698Y-98203436D01*
X140884259Y-98084364D01*
X140939062Y-97952058D01*
X140967000Y-97811603D01*
X140967000Y-97712224D01*
X141117224Y-97562000D01*
X157002777Y-97562000D01*
X157045683Y-97604907D01*
X157043000Y-97618397D01*
X157043000Y-97761603D01*
X157070938Y-97902058D01*
X157125741Y-98034364D01*
X157205302Y-98153436D01*
X157306564Y-98254698D01*
X157425636Y-98334259D01*
X157557942Y-98389062D01*
X157698397Y-98417000D01*
X157841603Y-98417000D01*
X157982058Y-98389062D01*
X158114364Y-98334259D01*
X158233436Y-98254698D01*
X158334698Y-98153436D01*
X158414259Y-98034364D01*
X158469062Y-97902058D01*
X158497000Y-97761603D01*
X158497000Y-97618397D01*
X158469062Y-97477942D01*
X158414259Y-97345636D01*
X158334698Y-97226564D01*
X158233436Y-97125302D01*
X158114364Y-97045741D01*
X157982058Y-96990938D01*
X157841603Y-96963000D01*
X157698397Y-96963000D01*
X157684907Y-96965683D01*
X157525323Y-96806100D01*
X157511159Y-96788841D01*
X157442333Y-96732357D01*
X157363810Y-96690386D01*
X157278607Y-96664540D01*
X157212205Y-96658000D01*
X157190000Y-96655813D01*
X157167795Y-96658000D01*
X140952205Y-96658000D01*
X140930000Y-96655813D01*
X140841392Y-96664540D01*
X140777868Y-96683810D01*
X140756190Y-96690386D01*
X140677667Y-96732357D01*
X140608841Y-96788841D01*
X140594681Y-96806095D01*
X140375138Y-97025638D01*
X140311603Y-97013000D01*
X140168397Y-97013000D01*
X140027942Y-97040938D01*
X139895636Y-97095741D01*
X139776564Y-97175302D01*
X139675302Y-97276564D01*
X139595741Y-97395636D01*
X139540938Y-97527942D01*
X139513000Y-97668397D01*
X124777620Y-97668397D01*
X122302000Y-95192777D01*
X122302000Y-93856751D01*
X122403000Y-93814916D01*
X122403000Y-93841603D01*
X122430938Y-93982058D01*
X122485741Y-94114364D01*
X122565302Y-94233436D01*
X122666564Y-94334698D01*
X122785636Y-94414259D01*
X122917942Y-94469062D01*
X123058397Y-94497000D01*
X123201603Y-94497000D01*
X123215093Y-94494317D01*
X123844685Y-95123910D01*
X123858841Y-95141159D01*
X123927667Y-95197643D01*
X124006190Y-95239614D01*
X124071562Y-95259444D01*
X124091392Y-95265460D01*
X124179999Y-95274187D01*
X124202204Y-95272000D01*
X129292777Y-95272000D01*
X129485683Y-95464907D01*
X129483000Y-95478397D01*
X129483000Y-95621603D01*
X129510938Y-95762058D01*
X129565741Y-95894364D01*
X129645302Y-96013436D01*
X129689866Y-96058000D01*
X125822339Y-96058000D01*
X125814698Y-96046564D01*
X125713436Y-95945302D01*
X125594364Y-95865741D01*
X125462058Y-95810938D01*
X125321603Y-95783000D01*
X125178397Y-95783000D01*
X125037942Y-95810938D01*
X124905636Y-95865741D01*
X124786564Y-95945302D01*
X124685302Y-96046564D01*
X124605741Y-96165636D01*
X124550938Y-96297942D01*
X124523000Y-96438397D01*
X124523000Y-96581603D01*
X124550938Y-96722058D01*
X124605741Y-96854364D01*
X124685302Y-96973436D01*
X124786564Y-97074698D01*
X124905636Y-97154259D01*
X125037942Y-97209062D01*
X125178397Y-97237000D01*
X125321603Y-97237000D01*
X125462058Y-97209062D01*
X125594364Y-97154259D01*
X125713436Y-97074698D01*
X125814698Y-96973436D01*
X125822339Y-96962000D01*
X130300797Y-96962000D01*
X130323002Y-96964187D01*
X130345207Y-96962000D01*
X130411609Y-96955460D01*
X130496812Y-96929614D01*
X130575335Y-96887643D01*
X130644161Y-96831159D01*
X130658325Y-96813900D01*
X131703828Y-95768397D01*
X132333000Y-95768397D01*
X132333000Y-95911603D01*
X132360938Y-96052058D01*
X132415741Y-96184364D01*
X132495302Y-96303436D01*
X132596564Y-96404698D01*
X132715636Y-96484259D01*
X132847942Y-96539062D01*
X132988397Y-96567000D01*
X133131603Y-96567000D01*
X133272058Y-96539062D01*
X133404364Y-96484259D01*
X133523436Y-96404698D01*
X133624698Y-96303436D01*
X133632339Y-96292000D01*
X136747795Y-96292000D01*
X136770000Y-96294187D01*
X136792205Y-96292000D01*
X136858607Y-96285460D01*
X136943810Y-96259614D01*
X137022333Y-96217643D01*
X137091159Y-96161159D01*
X137105321Y-96143902D01*
X137135313Y-96113911D01*
X137135317Y-96113906D01*
X137784907Y-95464317D01*
X137798397Y-95467000D01*
X137941603Y-95467000D01*
X138082058Y-95439062D01*
X138214364Y-95384259D01*
X138333436Y-95304698D01*
X138434698Y-95203436D01*
X138514259Y-95084364D01*
X138569062Y-94952058D01*
X138597000Y-94811603D01*
X138597000Y-94668397D01*
X138569062Y-94527942D01*
X138514259Y-94395636D01*
X138434698Y-94276564D01*
X138333436Y-94175302D01*
X138214364Y-94095741D01*
X138082058Y-94040938D01*
X137941603Y-94013000D01*
X137798397Y-94013000D01*
X137657942Y-94040938D01*
X137525636Y-94095741D01*
X137406564Y-94175302D01*
X137305302Y-94276564D01*
X137225741Y-94395636D01*
X137170938Y-94527942D01*
X137143000Y-94668397D01*
X137143000Y-94811603D01*
X137145683Y-94825093D01*
X136582777Y-95388000D01*
X133632339Y-95388000D01*
X133624698Y-95376564D01*
X133523436Y-95275302D01*
X133404364Y-95195741D01*
X133272058Y-95140938D01*
X133131603Y-95113000D01*
X132988397Y-95113000D01*
X132847942Y-95140938D01*
X132715636Y-95195741D01*
X132596564Y-95275302D01*
X132495302Y-95376564D01*
X132415741Y-95495636D01*
X132360938Y-95627942D01*
X132333000Y-95768397D01*
X131703828Y-95768397D01*
X132430226Y-95042000D01*
X134147661Y-95042000D01*
X134155302Y-95053436D01*
X134256564Y-95154698D01*
X134375636Y-95234259D01*
X134507942Y-95289062D01*
X134648397Y-95317000D01*
X134791603Y-95317000D01*
X134932058Y-95289062D01*
X135064364Y-95234259D01*
X135183436Y-95154698D01*
X135284698Y-95053436D01*
X135364259Y-94934364D01*
X135419062Y-94802058D01*
X135446846Y-94662377D01*
X136100826Y-94008397D01*
X141683000Y-94008397D01*
X141683000Y-94151603D01*
X141710938Y-94292058D01*
X141765741Y-94424364D01*
X141845302Y-94543436D01*
X141946564Y-94644698D01*
X142065636Y-94724259D01*
X142197942Y-94779062D01*
X142338397Y-94807000D01*
X142481603Y-94807000D01*
X142495093Y-94804317D01*
X143414685Y-95723910D01*
X143428841Y-95741159D01*
X143497667Y-95797643D01*
X143566037Y-95834187D01*
X143576190Y-95839614D01*
X143661392Y-95865460D01*
X143749999Y-95874187D01*
X143772204Y-95872000D01*
X150967661Y-95872000D01*
X150975302Y-95883436D01*
X151076564Y-95984698D01*
X151195636Y-96064259D01*
X151327942Y-96119062D01*
X151468397Y-96147000D01*
X151611603Y-96147000D01*
X151752058Y-96119062D01*
X151884364Y-96064259D01*
X152003436Y-95984698D01*
X152104698Y-95883436D01*
X152184259Y-95764364D01*
X152239062Y-95632058D01*
X152267000Y-95491603D01*
X152267000Y-95348397D01*
X152239062Y-95207942D01*
X152184259Y-95075636D01*
X152104698Y-94956564D01*
X152003436Y-94855302D01*
X151884364Y-94775741D01*
X151752058Y-94720938D01*
X151611603Y-94693000D01*
X151468397Y-94693000D01*
X151327942Y-94720938D01*
X151195636Y-94775741D01*
X151076564Y-94855302D01*
X150975302Y-94956564D01*
X150967661Y-94968000D01*
X143937225Y-94968000D01*
X143134317Y-94165093D01*
X143137000Y-94151603D01*
X143137000Y-94008397D01*
X143109062Y-93867942D01*
X143054259Y-93735636D01*
X142974698Y-93616564D01*
X142873436Y-93515302D01*
X142754364Y-93435741D01*
X142622058Y-93380938D01*
X142481603Y-93353000D01*
X142338397Y-93353000D01*
X142197942Y-93380938D01*
X142065636Y-93435741D01*
X141946564Y-93515302D01*
X141845302Y-93616564D01*
X141765741Y-93735636D01*
X141710938Y-93867942D01*
X141683000Y-94008397D01*
X136100826Y-94008397D01*
X138827224Y-91282000D01*
X139477661Y-91282000D01*
X139485302Y-91293436D01*
X139586564Y-91394698D01*
X139705636Y-91474259D01*
X139837942Y-91529062D01*
X139978397Y-91557000D01*
X140121603Y-91557000D01*
X140262058Y-91529062D01*
X140394364Y-91474259D01*
X140513436Y-91394698D01*
X140614698Y-91293436D01*
X140694259Y-91174364D01*
X140749062Y-91042058D01*
X140777000Y-90901603D01*
X140777000Y-90758397D01*
X140754113Y-90643337D01*
X142803919Y-92693143D01*
X142818079Y-92710397D01*
X142886905Y-92766881D01*
X142965428Y-92808852D01*
X143050630Y-92834698D01*
X143139238Y-92843425D01*
X143161443Y-92841238D01*
X144387195Y-92841238D01*
X144394836Y-92852674D01*
X144496098Y-92953936D01*
X144615170Y-93033497D01*
X144747476Y-93088300D01*
X144887931Y-93116238D01*
X145031137Y-93116238D01*
X145171592Y-93088300D01*
X145303898Y-93033497D01*
X145422970Y-92953936D01*
X145524232Y-92852674D01*
X145603793Y-92733602D01*
X145658596Y-92601296D01*
X145686534Y-92460841D01*
X145686534Y-92317635D01*
X145658596Y-92177180D01*
X145616413Y-92075342D01*
X145714364Y-92034769D01*
X145833436Y-91955208D01*
X145934698Y-91853946D01*
X146014259Y-91734874D01*
X146069062Y-91602568D01*
X146097000Y-91462113D01*
X146097000Y-91318907D01*
X146069062Y-91178452D01*
X146014259Y-91046146D01*
X145934698Y-90927074D01*
X145833436Y-90825812D01*
X145714364Y-90746251D01*
X145582058Y-90691448D01*
X145441603Y-90663510D01*
X145298397Y-90663510D01*
X145157942Y-90691448D01*
X145025636Y-90746251D01*
X144906564Y-90825812D01*
X144805302Y-90927074D01*
X144792436Y-90946329D01*
X144742731Y-90961407D01*
X144711450Y-90970896D01*
X144632927Y-91012867D01*
X144564101Y-91069351D01*
X144549941Y-91086605D01*
X144198547Y-91438000D01*
X143463634Y-91438000D01*
X142627634Y-90602000D01*
X143107661Y-90602000D01*
X143115302Y-90613436D01*
X143216564Y-90714698D01*
X143335636Y-90794259D01*
X143467942Y-90849062D01*
X143608397Y-90877000D01*
X143751603Y-90877000D01*
X143892058Y-90849062D01*
X144024364Y-90794259D01*
X144143436Y-90714698D01*
X144244698Y-90613436D01*
X144324259Y-90494364D01*
X144379062Y-90362058D01*
X144407000Y-90221603D01*
X144407000Y-90078397D01*
X144379062Y-89937942D01*
X144324259Y-89805636D01*
X144244698Y-89686564D01*
X144143436Y-89585302D01*
X144024364Y-89505741D01*
X143892058Y-89450938D01*
X143751603Y-89423000D01*
X143608397Y-89423000D01*
X143467942Y-89450938D01*
X143335636Y-89505741D01*
X143216564Y-89585302D01*
X143115302Y-89686564D01*
X143107661Y-89698000D01*
X142360044Y-89698000D01*
X140838119Y-88176076D01*
X140823959Y-88158822D01*
X140755133Y-88102338D01*
X140755129Y-88102336D01*
X140676609Y-88060366D01*
X140591407Y-88034520D01*
X140502800Y-88025793D01*
X140480585Y-88027981D01*
X137598735Y-88027981D01*
X137663283Y-87984851D01*
X137764545Y-87883589D01*
X137772186Y-87872153D01*
X141076046Y-87872153D01*
X142467797Y-89263905D01*
X142481957Y-89281159D01*
X142550783Y-89337643D01*
X142621514Y-89375449D01*
X142629306Y-89379614D01*
X142714508Y-89405460D01*
X142803116Y-89414187D01*
X142825321Y-89412000D01*
X149262777Y-89412000D01*
X151125683Y-91274907D01*
X151123000Y-91288397D01*
X151123000Y-91431603D01*
X151150938Y-91572058D01*
X151205741Y-91704364D01*
X151285302Y-91823436D01*
X151386564Y-91924698D01*
X151505636Y-92004259D01*
X151637942Y-92059062D01*
X151778397Y-92087000D01*
X151921603Y-92087000D01*
X152062058Y-92059062D01*
X152194364Y-92004259D01*
X152313436Y-91924698D01*
X152414698Y-91823436D01*
X152494259Y-91704364D01*
X152549062Y-91572058D01*
X152577000Y-91431603D01*
X152577000Y-91288397D01*
X152549062Y-91147942D01*
X152494259Y-91015636D01*
X152414698Y-90896564D01*
X152313436Y-90795302D01*
X152194364Y-90715741D01*
X152062058Y-90660938D01*
X151921603Y-90633000D01*
X151778397Y-90633000D01*
X151764907Y-90635683D01*
X149785323Y-88656100D01*
X149771159Y-88638841D01*
X149702333Y-88582357D01*
X149623810Y-88540386D01*
X149538607Y-88514540D01*
X149472205Y-88508000D01*
X149450000Y-88505813D01*
X149427795Y-88508000D01*
X142990340Y-88508000D01*
X142979340Y-88497000D01*
X142991603Y-88497000D01*
X143132058Y-88469062D01*
X143264364Y-88414259D01*
X143383436Y-88334698D01*
X143484698Y-88233436D01*
X143564259Y-88114364D01*
X143619062Y-87982058D01*
X143647000Y-87841603D01*
X143647000Y-87698397D01*
X143619062Y-87557942D01*
X143564259Y-87425636D01*
X143484698Y-87306564D01*
X143383436Y-87205302D01*
X143264364Y-87125741D01*
X143132058Y-87070938D01*
X142991603Y-87043000D01*
X142848397Y-87043000D01*
X142834907Y-87045683D01*
X141515323Y-85726100D01*
X141501159Y-85708841D01*
X141432333Y-85652357D01*
X141353810Y-85610386D01*
X141268607Y-85584540D01*
X141202205Y-85578000D01*
X141180000Y-85575813D01*
X141157795Y-85578000D01*
X137027224Y-85578000D01*
X136808507Y-85359284D01*
X136807643Y-85357667D01*
X136751159Y-85288841D01*
X136682333Y-85232357D01*
X136669976Y-85225752D01*
X132818061Y-81373838D01*
X132861769Y-81268318D01*
X132907000Y-81040924D01*
X132907000Y-80809076D01*
X132861769Y-80581682D01*
X132773044Y-80367481D01*
X132644236Y-80174706D01*
X132480294Y-80010764D01*
X132287519Y-79881956D01*
X132073318Y-79793231D01*
X131845924Y-79748000D01*
X131614076Y-79748000D01*
X131386682Y-79793231D01*
X131172481Y-79881956D01*
X130979706Y-80010764D01*
X130815764Y-80174706D01*
X130686956Y-80367481D01*
X130598231Y-80581682D01*
X130553000Y-80809076D01*
X130553000Y-81040924D01*
X130598231Y-81268318D01*
X130686956Y-81482519D01*
X130815764Y-81675294D01*
X130979706Y-81839236D01*
X131172481Y-81968044D01*
X131386682Y-82056769D01*
X131614076Y-82102000D01*
X131845924Y-82102000D01*
X132073318Y-82056769D01*
X132178838Y-82013061D01*
X136079681Y-85913905D01*
X136093841Y-85931159D01*
X136138983Y-85968206D01*
X136504681Y-86333905D01*
X136518841Y-86351159D01*
X136587667Y-86407643D01*
X136665719Y-86449362D01*
X136666190Y-86449614D01*
X136751392Y-86475460D01*
X136840000Y-86484187D01*
X136862205Y-86482000D01*
X140992777Y-86482000D01*
X142195683Y-87684907D01*
X142193000Y-87698397D01*
X142193000Y-87710661D01*
X141598592Y-87116253D01*
X141584428Y-87098994D01*
X141515602Y-87042510D01*
X141437079Y-87000539D01*
X141351876Y-86974693D01*
X141285474Y-86968153D01*
X141263269Y-86965966D01*
X141241064Y-86968153D01*
X137772186Y-86968153D01*
X137764545Y-86956717D01*
X137663283Y-86855455D01*
X137544211Y-86775894D01*
X137411905Y-86721091D01*
X137271450Y-86693153D01*
X137128244Y-86693153D01*
X136987789Y-86721091D01*
X136855483Y-86775894D01*
X136736411Y-86855455D01*
X136635149Y-86956717D01*
X136627508Y-86968153D01*
X133332378Y-86968153D01*
X127738061Y-81373838D01*
X127781769Y-81268318D01*
X127827000Y-81040924D01*
X127827000Y-80809076D01*
X127781769Y-80581682D01*
X127693044Y-80367481D01*
X127564236Y-80174706D01*
X127400294Y-80010764D01*
X127207519Y-79881956D01*
X126993318Y-79793231D01*
X126765924Y-79748000D01*
X126534076Y-79748000D01*
X126306682Y-79793231D01*
X126201162Y-79836939D01*
X125545323Y-79181100D01*
X125531159Y-79163841D01*
X125510638Y-79147000D01*
X129553776Y-79147000D01*
X128922658Y-79778119D01*
G36*
X138220938Y-89892942D02*
G01*
X138200954Y-89993412D01*
X135066367Y-93128000D01*
X134679200Y-93128000D01*
X134656997Y-93125813D01*
X134634794Y-93128000D01*
X134634793Y-93128000D01*
X134568391Y-93134540D01*
X134483188Y-93160386D01*
X134404665Y-93202357D01*
X134335839Y-93258841D01*
X134321683Y-93276090D01*
X133909784Y-93687990D01*
X131642214Y-93687990D01*
X131620009Y-93685803D01*
X131531402Y-93694530D01*
X131518655Y-93698397D01*
X131446200Y-93720376D01*
X131367677Y-93762347D01*
X131298851Y-93818831D01*
X131284695Y-93836080D01*
X130295093Y-94825683D01*
X130281603Y-94823000D01*
X130138397Y-94823000D01*
X130124907Y-94825683D01*
X129815323Y-94516100D01*
X129801159Y-94498841D01*
X129732333Y-94442357D01*
X129653810Y-94400386D01*
X129568607Y-94374540D01*
X129502205Y-94368000D01*
X129480000Y-94365813D01*
X129457795Y-94368000D01*
X124367225Y-94368000D01*
X124149574Y-94150350D01*
X124263000Y-94090814D01*
X124263000Y-92897000D01*
X124517000Y-92897000D01*
X124517000Y-94090814D01*
X124746891Y-94211481D01*
X125021252Y-94114157D01*
X125271355Y-93965178D01*
X125487588Y-93770269D01*
X125661641Y-93536920D01*
X125786825Y-93274099D01*
X125831476Y-93126890D01*
X125710155Y-92897000D01*
X124517000Y-92897000D01*
X124263000Y-92897000D01*
X124243000Y-92897000D01*
X124243000Y-92643000D01*
X124263000Y-92643000D01*
X124263000Y-92623000D01*
X124517000Y-92623000D01*
X124517000Y-92643000D01*
X125710155Y-92643000D01*
X125831476Y-92413110D01*
X125786825Y-92265901D01*
X125661641Y-92003080D01*
X125487588Y-91769731D01*
X125271355Y-91574822D01*
X125021252Y-91425843D01*
X124782821Y-91341264D01*
X124947519Y-91273044D01*
X125140294Y-91144236D01*
X125304236Y-90980294D01*
X125433044Y-90787519D01*
X125521769Y-90573318D01*
X125567000Y-90345924D01*
X125567000Y-90114076D01*
X125521769Y-89886682D01*
X125499119Y-89831999D01*
X138246181Y-89831999D01*
X138220938Y-89892942D01*
G37*
X138220938Y-89892942D02*
X138200954Y-89993412D01*
X135066367Y-93128000D01*
X134679200Y-93128000D01*
X134656997Y-93125813D01*
X134634794Y-93128000D01*
X134634793Y-93128000D01*
X134568391Y-93134540D01*
X134483188Y-93160386D01*
X134404665Y-93202357D01*
X134335839Y-93258841D01*
X134321683Y-93276090D01*
X133909784Y-93687990D01*
X131642214Y-93687990D01*
X131620009Y-93685803D01*
X131531402Y-93694530D01*
X131518655Y-93698397D01*
X131446200Y-93720376D01*
X131367677Y-93762347D01*
X131298851Y-93818831D01*
X131284695Y-93836080D01*
X130295093Y-94825683D01*
X130281603Y-94823000D01*
X130138397Y-94823000D01*
X130124907Y-94825683D01*
X129815323Y-94516100D01*
X129801159Y-94498841D01*
X129732333Y-94442357D01*
X129653810Y-94400386D01*
X129568607Y-94374540D01*
X129502205Y-94368000D01*
X129480000Y-94365813D01*
X129457795Y-94368000D01*
X124367225Y-94368000D01*
X124149574Y-94150350D01*
X124263000Y-94090814D01*
X124263000Y-92897000D01*
X124517000Y-92897000D01*
X124517000Y-94090814D01*
X124746891Y-94211481D01*
X125021252Y-94114157D01*
X125271355Y-93965178D01*
X125487588Y-93770269D01*
X125661641Y-93536920D01*
X125786825Y-93274099D01*
X125831476Y-93126890D01*
X125710155Y-92897000D01*
X124517000Y-92897000D01*
X124263000Y-92897000D01*
X124243000Y-92897000D01*
X124243000Y-92643000D01*
X124263000Y-92643000D01*
X124263000Y-92623000D01*
X124517000Y-92623000D01*
X124517000Y-92643000D01*
X125710155Y-92643000D01*
X125831476Y-92413110D01*
X125786825Y-92265901D01*
X125661641Y-92003080D01*
X125487588Y-91769731D01*
X125271355Y-91574822D01*
X125021252Y-91425843D01*
X124782821Y-91341264D01*
X124947519Y-91273044D01*
X125140294Y-91144236D01*
X125304236Y-90980294D01*
X125433044Y-90787519D01*
X125521769Y-90573318D01*
X125567000Y-90345924D01*
X125567000Y-90114076D01*
X125521769Y-89886682D01*
X125499119Y-89831999D01*
X138246181Y-89831999D01*
X138220938Y-89892942D01*
G36*
X123343080Y-79653359D02*
G01*
X123109731Y-79827412D01*
X122914822Y-80043645D01*
X122765843Y-80293748D01*
X122748582Y-80342408D01*
X122748582Y-80075000D01*
X122742268Y-80010897D01*
X122723570Y-79949257D01*
X122693206Y-79892450D01*
X122652343Y-79842657D01*
X122602550Y-79801794D01*
X122545743Y-79771430D01*
X122484103Y-79752732D01*
X122420000Y-79746418D01*
X120720000Y-79746418D01*
X120655897Y-79752732D01*
X120594257Y-79771430D01*
X120537450Y-79801794D01*
X120487657Y-79842657D01*
X120446794Y-79892450D01*
X120416430Y-79949257D01*
X120397732Y-80010897D01*
X120391418Y-80075000D01*
X120391418Y-81775000D01*
X120397732Y-81839103D01*
X120416430Y-81900743D01*
X120446794Y-81957550D01*
X120487657Y-82007343D01*
X120537450Y-82048206D01*
X120594257Y-82078570D01*
X120655897Y-82097268D01*
X120720000Y-82103582D01*
X122003293Y-82103582D01*
X125460655Y-85560946D01*
X125460666Y-85560955D01*
X126824049Y-86924339D01*
X126840552Y-86944448D01*
X126909956Y-87001406D01*
X126920798Y-87010304D01*
X127012350Y-87059239D01*
X127111690Y-87089374D01*
X127215000Y-87099549D01*
X127240881Y-87097000D01*
X127308866Y-87097000D01*
X127346564Y-87134698D01*
X127465636Y-87214259D01*
X127597942Y-87269062D01*
X127738397Y-87297000D01*
X127881603Y-87297000D01*
X128022058Y-87269062D01*
X128154364Y-87214259D01*
X128273436Y-87134698D01*
X128374698Y-87033436D01*
X128454259Y-86914364D01*
X128509062Y-86782058D01*
X128537000Y-86641603D01*
X128537000Y-86498397D01*
X128509062Y-86357942D01*
X128454259Y-86225636D01*
X128374698Y-86106564D01*
X128273436Y-86005302D01*
X128154364Y-85925741D01*
X128022058Y-85870938D01*
X127881603Y-85843000D01*
X127738397Y-85843000D01*
X127597942Y-85870938D01*
X127465636Y-85925741D01*
X127375954Y-85985664D01*
X126205955Y-84815666D01*
X126205946Y-84815655D01*
X123755503Y-82365213D01*
X123983000Y-82245155D01*
X123983000Y-81052000D01*
X123963000Y-81052000D01*
X123963000Y-80798000D01*
X123983000Y-80798000D01*
X123983000Y-80778000D01*
X124237000Y-80778000D01*
X124237000Y-80798000D01*
X124257000Y-80798000D01*
X124257000Y-81052000D01*
X124237000Y-81052000D01*
X124237000Y-82245155D01*
X124466890Y-82366476D01*
X124614099Y-82321825D01*
X124876920Y-82196641D01*
X125110269Y-82022588D01*
X125305178Y-81806355D01*
X125454157Y-81556252D01*
X125538736Y-81317821D01*
X125606956Y-81482519D01*
X125735764Y-81675294D01*
X125899706Y-81839236D01*
X126092481Y-81968044D01*
X126306682Y-82056769D01*
X126534076Y-82102000D01*
X126765924Y-82102000D01*
X126993318Y-82056769D01*
X127098838Y-82013061D01*
X132809838Y-87724063D01*
X132823994Y-87741312D01*
X132892820Y-87797796D01*
X132971343Y-87839767D01*
X133056546Y-87865613D01*
X133122948Y-87872153D01*
X133122949Y-87872153D01*
X133145152Y-87874340D01*
X133167355Y-87872153D01*
X136627508Y-87872153D01*
X136635149Y-87883589D01*
X136736411Y-87984851D01*
X136800959Y-88027980D01*
X128872888Y-88027979D01*
X128651008Y-87806100D01*
X128636844Y-87788841D01*
X128568018Y-87732357D01*
X128489495Y-87690386D01*
X128404292Y-87664540D01*
X128337890Y-87658000D01*
X128315685Y-87655813D01*
X128293480Y-87658000D01*
X128092339Y-87658000D01*
X128084698Y-87646564D01*
X127983436Y-87545302D01*
X127864364Y-87465741D01*
X127732058Y-87410938D01*
X127591603Y-87383000D01*
X127448397Y-87383000D01*
X127307942Y-87410938D01*
X127175636Y-87465741D01*
X127056564Y-87545302D01*
X126955302Y-87646564D01*
X126875741Y-87765636D01*
X126820938Y-87897942D01*
X126793000Y-88038397D01*
X126793000Y-88181603D01*
X126820938Y-88322058D01*
X126875741Y-88454364D01*
X126891527Y-88477989D01*
X125266541Y-88477989D01*
X125304236Y-88440294D01*
X125433044Y-88247519D01*
X125521769Y-88033318D01*
X125567000Y-87805924D01*
X125567000Y-87574076D01*
X125521769Y-87346682D01*
X125433044Y-87132481D01*
X125304236Y-86939706D01*
X125140294Y-86775764D01*
X124947519Y-86646956D01*
X124733318Y-86558231D01*
X124505924Y-86513000D01*
X124274076Y-86513000D01*
X124046682Y-86558231D01*
X123832481Y-86646956D01*
X123639706Y-86775764D01*
X123475764Y-86939706D01*
X123346956Y-87132481D01*
X123258231Y-87346682D01*
X123213000Y-87574076D01*
X123213000Y-87805924D01*
X123258231Y-88033318D01*
X123346956Y-88247519D01*
X123475764Y-88440294D01*
X123513459Y-88477989D01*
X123277214Y-88477989D01*
X123028582Y-88229358D01*
X123028582Y-86840000D01*
X123022268Y-86775897D01*
X123003570Y-86714257D01*
X122973206Y-86657450D01*
X122932343Y-86607657D01*
X122882550Y-86566794D01*
X122825743Y-86536430D01*
X122764103Y-86517732D01*
X122700000Y-86511418D01*
X121000000Y-86511418D01*
X120935897Y-86517732D01*
X120874257Y-86536430D01*
X120817450Y-86566794D01*
X120767657Y-86607657D01*
X120726794Y-86657450D01*
X120696430Y-86714257D01*
X120677732Y-86775897D01*
X120671418Y-86840000D01*
X120671418Y-88540000D01*
X120677732Y-88604103D01*
X120696430Y-88665743D01*
X120726794Y-88722550D01*
X120767657Y-88772343D01*
X120817450Y-88813206D01*
X120874257Y-88843570D01*
X120935897Y-88862268D01*
X121000000Y-88868582D01*
X122389358Y-88868582D01*
X122754674Y-89233899D01*
X122768830Y-89251148D01*
X122837656Y-89307632D01*
X122916179Y-89349603D01*
X122981551Y-89369433D01*
X123001381Y-89375449D01*
X123089988Y-89384176D01*
X123112193Y-89381989D01*
X123573481Y-89381989D01*
X123475764Y-89479706D01*
X123346956Y-89672481D01*
X123258231Y-89886682D01*
X123213000Y-90114076D01*
X123213000Y-90345924D01*
X123258231Y-90573318D01*
X123346956Y-90787519D01*
X123475764Y-90980294D01*
X123639706Y-91144236D01*
X123832481Y-91273044D01*
X123997179Y-91341264D01*
X123758748Y-91425843D01*
X123508645Y-91574822D01*
X123292412Y-91769731D01*
X123118359Y-92003080D01*
X122993175Y-92265901D01*
X122960201Y-92374612D01*
X122893044Y-92212481D01*
X122764236Y-92019706D01*
X122600294Y-91855764D01*
X122407519Y-91726956D01*
X122193318Y-91638231D01*
X121965924Y-91593000D01*
X121734076Y-91593000D01*
X121506682Y-91638231D01*
X121292481Y-91726956D01*
X121168812Y-91809589D01*
X120222014Y-90862791D01*
X120222014Y-90608743D01*
X120222222Y-90114076D01*
X120673000Y-90114076D01*
X120673000Y-90345924D01*
X120718231Y-90573318D01*
X120806956Y-90787519D01*
X120935764Y-90980294D01*
X121099706Y-91144236D01*
X121292481Y-91273044D01*
X121506682Y-91361769D01*
X121734076Y-91407000D01*
X121965924Y-91407000D01*
X122193318Y-91361769D01*
X122407519Y-91273044D01*
X122600294Y-91144236D01*
X122764236Y-90980294D01*
X122893044Y-90787519D01*
X122981769Y-90573318D01*
X123027000Y-90345924D01*
X123027000Y-90114076D01*
X122981769Y-89886682D01*
X122893044Y-89672481D01*
X122764236Y-89479706D01*
X122600294Y-89315764D01*
X122407519Y-89186956D01*
X122193318Y-89098231D01*
X121965924Y-89053000D01*
X121734076Y-89053000D01*
X121506682Y-89098231D01*
X121292481Y-89186956D01*
X121099706Y-89315764D01*
X120935764Y-89479706D01*
X120806956Y-89672481D01*
X120718231Y-89886682D01*
X120673000Y-90114076D01*
X120222222Y-90114076D01*
X120226660Y-79597010D01*
X123461383Y-79597010D01*
X123343080Y-79653359D01*
G37*
X123343080Y-79653359D02*
X123109731Y-79827412D01*
X122914822Y-80043645D01*
X122765843Y-80293748D01*
X122748582Y-80342408D01*
X122748582Y-80075000D01*
X122742268Y-80010897D01*
X122723570Y-79949257D01*
X122693206Y-79892450D01*
X122652343Y-79842657D01*
X122602550Y-79801794D01*
X122545743Y-79771430D01*
X122484103Y-79752732D01*
X122420000Y-79746418D01*
X120720000Y-79746418D01*
X120655897Y-79752732D01*
X120594257Y-79771430D01*
X120537450Y-79801794D01*
X120487657Y-79842657D01*
X120446794Y-79892450D01*
X120416430Y-79949257D01*
X120397732Y-80010897D01*
X120391418Y-80075000D01*
X120391418Y-81775000D01*
X120397732Y-81839103D01*
X120416430Y-81900743D01*
X120446794Y-81957550D01*
X120487657Y-82007343D01*
X120537450Y-82048206D01*
X120594257Y-82078570D01*
X120655897Y-82097268D01*
X120720000Y-82103582D01*
X122003293Y-82103582D01*
X125460655Y-85560946D01*
X125460666Y-85560955D01*
X126824049Y-86924339D01*
X126840552Y-86944448D01*
X126909956Y-87001406D01*
X126920798Y-87010304D01*
X127012350Y-87059239D01*
X127111690Y-87089374D01*
X127215000Y-87099549D01*
X127240881Y-87097000D01*
X127308866Y-87097000D01*
X127346564Y-87134698D01*
X127465636Y-87214259D01*
X127597942Y-87269062D01*
X127738397Y-87297000D01*
X127881603Y-87297000D01*
X128022058Y-87269062D01*
X128154364Y-87214259D01*
X128273436Y-87134698D01*
X128374698Y-87033436D01*
X128454259Y-86914364D01*
X128509062Y-86782058D01*
X128537000Y-86641603D01*
X128537000Y-86498397D01*
X128509062Y-86357942D01*
X128454259Y-86225636D01*
X128374698Y-86106564D01*
X128273436Y-86005302D01*
X128154364Y-85925741D01*
X128022058Y-85870938D01*
X127881603Y-85843000D01*
X127738397Y-85843000D01*
X127597942Y-85870938D01*
X127465636Y-85925741D01*
X127375954Y-85985664D01*
X126205955Y-84815666D01*
X126205946Y-84815655D01*
X123755503Y-82365213D01*
X123983000Y-82245155D01*
X123983000Y-81052000D01*
X123963000Y-81052000D01*
X123963000Y-80798000D01*
X123983000Y-80798000D01*
X123983000Y-80778000D01*
X124237000Y-80778000D01*
X124237000Y-80798000D01*
X124257000Y-80798000D01*
X124257000Y-81052000D01*
X124237000Y-81052000D01*
X124237000Y-82245155D01*
X124466890Y-82366476D01*
X124614099Y-82321825D01*
X124876920Y-82196641D01*
X125110269Y-82022588D01*
X125305178Y-81806355D01*
X125454157Y-81556252D01*
X125538736Y-81317821D01*
X125606956Y-81482519D01*
X125735764Y-81675294D01*
X125899706Y-81839236D01*
X126092481Y-81968044D01*
X126306682Y-82056769D01*
X126534076Y-82102000D01*
X126765924Y-82102000D01*
X126993318Y-82056769D01*
X127098838Y-82013061D01*
X132809838Y-87724063D01*
X132823994Y-87741312D01*
X132892820Y-87797796D01*
X132971343Y-87839767D01*
X133056546Y-87865613D01*
X133122948Y-87872153D01*
X133122949Y-87872153D01*
X133145152Y-87874340D01*
X133167355Y-87872153D01*
X136627508Y-87872153D01*
X136635149Y-87883589D01*
X136736411Y-87984851D01*
X136800959Y-88027980D01*
X128872888Y-88027979D01*
X128651008Y-87806100D01*
X128636844Y-87788841D01*
X128568018Y-87732357D01*
X128489495Y-87690386D01*
X128404292Y-87664540D01*
X128337890Y-87658000D01*
X128315685Y-87655813D01*
X128293480Y-87658000D01*
X128092339Y-87658000D01*
X128084698Y-87646564D01*
X127983436Y-87545302D01*
X127864364Y-87465741D01*
X127732058Y-87410938D01*
X127591603Y-87383000D01*
X127448397Y-87383000D01*
X127307942Y-87410938D01*
X127175636Y-87465741D01*
X127056564Y-87545302D01*
X126955302Y-87646564D01*
X126875741Y-87765636D01*
X126820938Y-87897942D01*
X126793000Y-88038397D01*
X126793000Y-88181603D01*
X126820938Y-88322058D01*
X126875741Y-88454364D01*
X126891527Y-88477989D01*
X125266541Y-88477989D01*
X125304236Y-88440294D01*
X125433044Y-88247519D01*
X125521769Y-88033318D01*
X125567000Y-87805924D01*
X125567000Y-87574076D01*
X125521769Y-87346682D01*
X125433044Y-87132481D01*
X125304236Y-86939706D01*
X125140294Y-86775764D01*
X124947519Y-86646956D01*
X124733318Y-86558231D01*
X124505924Y-86513000D01*
X124274076Y-86513000D01*
X124046682Y-86558231D01*
X123832481Y-86646956D01*
X123639706Y-86775764D01*
X123475764Y-86939706D01*
X123346956Y-87132481D01*
X123258231Y-87346682D01*
X123213000Y-87574076D01*
X123213000Y-87805924D01*
X123258231Y-88033318D01*
X123346956Y-88247519D01*
X123475764Y-88440294D01*
X123513459Y-88477989D01*
X123277214Y-88477989D01*
X123028582Y-88229358D01*
X123028582Y-86840000D01*
X123022268Y-86775897D01*
X123003570Y-86714257D01*
X122973206Y-86657450D01*
X122932343Y-86607657D01*
X122882550Y-86566794D01*
X122825743Y-86536430D01*
X122764103Y-86517732D01*
X122700000Y-86511418D01*
X121000000Y-86511418D01*
X120935897Y-86517732D01*
X120874257Y-86536430D01*
X120817450Y-86566794D01*
X120767657Y-86607657D01*
X120726794Y-86657450D01*
X120696430Y-86714257D01*
X120677732Y-86775897D01*
X120671418Y-86840000D01*
X120671418Y-88540000D01*
X120677732Y-88604103D01*
X120696430Y-88665743D01*
X120726794Y-88722550D01*
X120767657Y-88772343D01*
X120817450Y-88813206D01*
X120874257Y-88843570D01*
X120935897Y-88862268D01*
X121000000Y-88868582D01*
X122389358Y-88868582D01*
X122754674Y-89233899D01*
X122768830Y-89251148D01*
X122837656Y-89307632D01*
X122916179Y-89349603D01*
X122981551Y-89369433D01*
X123001381Y-89375449D01*
X123089988Y-89384176D01*
X123112193Y-89381989D01*
X123573481Y-89381989D01*
X123475764Y-89479706D01*
X123346956Y-89672481D01*
X123258231Y-89886682D01*
X123213000Y-90114076D01*
X123213000Y-90345924D01*
X123258231Y-90573318D01*
X123346956Y-90787519D01*
X123475764Y-90980294D01*
X123639706Y-91144236D01*
X123832481Y-91273044D01*
X123997179Y-91341264D01*
X123758748Y-91425843D01*
X123508645Y-91574822D01*
X123292412Y-91769731D01*
X123118359Y-92003080D01*
X122993175Y-92265901D01*
X122960201Y-92374612D01*
X122893044Y-92212481D01*
X122764236Y-92019706D01*
X122600294Y-91855764D01*
X122407519Y-91726956D01*
X122193318Y-91638231D01*
X121965924Y-91593000D01*
X121734076Y-91593000D01*
X121506682Y-91638231D01*
X121292481Y-91726956D01*
X121168812Y-91809589D01*
X120222014Y-90862791D01*
X120222014Y-90608743D01*
X120222222Y-90114076D01*
X120673000Y-90114076D01*
X120673000Y-90345924D01*
X120718231Y-90573318D01*
X120806956Y-90787519D01*
X120935764Y-90980294D01*
X121099706Y-91144236D01*
X121292481Y-91273044D01*
X121506682Y-91361769D01*
X121734076Y-91407000D01*
X121965924Y-91407000D01*
X122193318Y-91361769D01*
X122407519Y-91273044D01*
X122600294Y-91144236D01*
X122764236Y-90980294D01*
X122893044Y-90787519D01*
X122981769Y-90573318D01*
X123027000Y-90345924D01*
X123027000Y-90114076D01*
X122981769Y-89886682D01*
X122893044Y-89672481D01*
X122764236Y-89479706D01*
X122600294Y-89315764D01*
X122407519Y-89186956D01*
X122193318Y-89098231D01*
X121965924Y-89053000D01*
X121734076Y-89053000D01*
X121506682Y-89098231D01*
X121292481Y-89186956D01*
X121099706Y-89315764D01*
X120935764Y-89479706D01*
X120806956Y-89672481D01*
X120718231Y-89886682D01*
X120673000Y-90114076D01*
X120222222Y-90114076D01*
X120226660Y-79597010D01*
X123461383Y-79597010D01*
X123343080Y-79653359D01*
%TD*%
M02*
