M48
; DRILL file {KiCad (5.1.6)-1} date 11/19/20 11:17:45
; FORMAT={-:-/ absolute / inch / decimal}
; #@! TF.CreationDate,2020-11-19T11:17:45+01:00
; #@! TF.GenerationSoftware,Kicad,Pcbnew,(5.1.6)-1
FMAT,2
INCH
T1C0.0157
T2C0.0394
%
G90
G05
T1
X4.8476Y-3.6917
X4.9311Y-3.7996
X5.0205Y-3.4689
X5.0319Y-3.4083
X5.1264Y-3.7618
X5.1961Y-3.2728
X5.2386Y-3.7732
X5.3039Y-3.724
X5.3882Y-3.2445
X5.4016Y-3.4417
X5.428Y-3.7299
X5.4693Y-3.5474
X5.5138Y-3.576
X5.5213Y-3.848
X5.6067Y-3.7039
X5.6268Y-3.4555
X5.6567Y-3.5492
X5.7071Y-3.6374
X5.7232Y-3.5981
X5.7995Y-3.407
X5.9661Y-3.7567
X5.9783Y-3.5969
X5.9791Y-3.8811
X6.2114Y-3.8461
T2
X4.789Y-3.9469
X4.889Y-3.9469
X4.989Y-3.9469
X5.089Y-3.9469
X5.189Y-3.9469
X5.289Y-3.9469
X5.389Y-3.9469
X5.489Y-3.9469
X5.589Y-3.9469
X5.689Y-3.9469
X5.789Y-3.9469
X5.889Y-3.9469
X5.989Y-3.9469
X6.089Y-3.9469
X6.189Y-3.9469
X4.7862Y-3.186
X4.8862Y-3.186
X4.9862Y-3.186
X5.0862Y-3.186
X5.1862Y-3.186
X5.2862Y-3.186
X5.3862Y-3.186
X5.4862Y-3.186
X5.5862Y-3.186
X5.6862Y-3.186
X5.7862Y-3.186
X5.8862Y-3.186
X5.9862Y-3.186
X6.0862Y-3.186
X6.1862Y-3.186
X4.7972Y-3.4524
X4.7972Y-3.5524
X4.7972Y-3.6524
X4.8972Y-3.4524
X4.8972Y-3.5524
X4.8972Y-3.6524
T0
M30
