%TF.GenerationSoftware,KiCad,Pcbnew,(5.1.6)-1*%
%TF.CreationDate,2020-11-19T11:34:22+01:00*%
%TF.ProjectId,Karim_Arduino,4b617269-6d5f-4417-9264-75696e6f2e6b,rev?*%
%TF.SameCoordinates,Original*%
%TF.FileFunction,Paste,Top*%
%TF.FilePolarity,Positive*%
%FSLAX46Y46*%
G04 Gerber Fmt 4.6, Leading zero omitted, Abs format (unit mm)*
G04 Created by KiCad (PCBNEW (5.1.6)-1) date 2020-11-19 11:34:22*
%MOMM*%
%LPD*%
G01*
G04 APERTURE LIST*
%ADD10C,0.100000*%
%ADD11R,1.200000X1.400000*%
%ADD12R,1.524000X0.762000*%
%ADD13R,3.800000X2.000000*%
%ADD14R,1.500000X2.000000*%
G04 APERTURE END LIST*
%TO.C,D2*%
G36*
G01*
X121213750Y-84660000D02*
X121726250Y-84660000D01*
G75*
G02*
X121945000Y-84878750I0J-218750D01*
G01*
X121945000Y-85316250D01*
G75*
G02*
X121726250Y-85535000I-218750J0D01*
G01*
X121213750Y-85535000D01*
G75*
G02*
X120995000Y-85316250I0J218750D01*
G01*
X120995000Y-84878750D01*
G75*
G02*
X121213750Y-84660000I218750J0D01*
G01*
G37*
G36*
G01*
X121213750Y-83085000D02*
X121726250Y-83085000D01*
G75*
G02*
X121945000Y-83303750I0J-218750D01*
G01*
X121945000Y-83741250D01*
G75*
G02*
X121726250Y-83960000I-218750J0D01*
G01*
X121213750Y-83960000D01*
G75*
G02*
X120995000Y-83741250I0J218750D01*
G01*
X120995000Y-83303750D01*
G75*
G02*
X121213750Y-83085000I218750J0D01*
G01*
G37*
%TD*%
%TO.C,R1*%
G36*
G01*
X126825000Y-83625000D02*
X126825000Y-84175000D01*
G75*
G02*
X126625000Y-84375000I-200000J0D01*
G01*
X126225000Y-84375000D01*
G75*
G02*
X126025000Y-84175000I0J200000D01*
G01*
X126025000Y-83625000D01*
G75*
G02*
X126225000Y-83425000I200000J0D01*
G01*
X126625000Y-83425000D01*
G75*
G02*
X126825000Y-83625000I0J-200000D01*
G01*
G37*
G36*
G01*
X128475000Y-83625000D02*
X128475000Y-84175000D01*
G75*
G02*
X128275000Y-84375000I-200000J0D01*
G01*
X127875000Y-84375000D01*
G75*
G02*
X127675000Y-84175000I0J200000D01*
G01*
X127675000Y-83625000D01*
G75*
G02*
X127875000Y-83425000I200000J0D01*
G01*
X128275000Y-83425000D01*
G75*
G02*
X128475000Y-83625000I0J-200000D01*
G01*
G37*
%TD*%
D10*
%TO.C,U1*%
G36*
X137233978Y-92452656D02*
G01*
X136838847Y-92057525D01*
X137736872Y-91159500D01*
X138132003Y-91554631D01*
X137233978Y-92452656D01*
G37*
G36*
X137799734Y-93018412D02*
G01*
X137404603Y-92623281D01*
X138302628Y-91725256D01*
X138697759Y-92120387D01*
X137799734Y-93018412D01*
G37*
G36*
X138365490Y-93584168D02*
G01*
X137970359Y-93189037D01*
X138868384Y-92291012D01*
X139263515Y-92686143D01*
X138365490Y-93584168D01*
G37*
G36*
X138931246Y-94149925D02*
G01*
X138536115Y-93754794D01*
X139434140Y-92856769D01*
X139829271Y-93251900D01*
X138931246Y-94149925D01*
G37*
G36*
X139495206Y-94713885D02*
G01*
X139100075Y-94318754D01*
X139998100Y-93420729D01*
X140393231Y-93815860D01*
X139495206Y-94713885D01*
G37*
G36*
X140060963Y-95279641D02*
G01*
X139665832Y-94884510D01*
X140563857Y-93986485D01*
X140958988Y-94381616D01*
X140060963Y-95279641D01*
G37*
G36*
X140626719Y-95845397D02*
G01*
X140231588Y-95450266D01*
X141129613Y-94552241D01*
X141524744Y-94947372D01*
X140626719Y-95845397D01*
G37*
G36*
X141192475Y-96411153D02*
G01*
X140797344Y-96016022D01*
X141695369Y-95117997D01*
X142090500Y-95513128D01*
X141192475Y-96411153D01*
G37*
G36*
X143807525Y-96411153D02*
G01*
X142909500Y-95513128D01*
X143304631Y-95117997D01*
X144202656Y-96016022D01*
X143807525Y-96411153D01*
G37*
G36*
X144373281Y-95845397D02*
G01*
X143475256Y-94947372D01*
X143870387Y-94552241D01*
X144768412Y-95450266D01*
X144373281Y-95845397D01*
G37*
G36*
X144939037Y-95279641D02*
G01*
X144041012Y-94381616D01*
X144436143Y-93986485D01*
X145334168Y-94884510D01*
X144939037Y-95279641D01*
G37*
G36*
X145504794Y-94713885D02*
G01*
X144606769Y-93815860D01*
X145001900Y-93420729D01*
X145899925Y-94318754D01*
X145504794Y-94713885D01*
G37*
G36*
X146068754Y-94149925D02*
G01*
X145170729Y-93251900D01*
X145565860Y-92856769D01*
X146463885Y-93754794D01*
X146068754Y-94149925D01*
G37*
G36*
X146634510Y-93584168D02*
G01*
X145736485Y-92686143D01*
X146131616Y-92291012D01*
X147029641Y-93189037D01*
X146634510Y-93584168D01*
G37*
G36*
X147200266Y-93018412D02*
G01*
X146302241Y-92120387D01*
X146697372Y-91725256D01*
X147595397Y-92623281D01*
X147200266Y-93018412D01*
G37*
G36*
X147766022Y-92452656D02*
G01*
X146867997Y-91554631D01*
X147263128Y-91159500D01*
X148161153Y-92057525D01*
X147766022Y-92452656D01*
G37*
G36*
X147263128Y-90340500D02*
G01*
X146867997Y-89945369D01*
X147766022Y-89047344D01*
X148161153Y-89442475D01*
X147263128Y-90340500D01*
G37*
G36*
X146697372Y-89774744D02*
G01*
X146302241Y-89379613D01*
X147200266Y-88481588D01*
X147595397Y-88876719D01*
X146697372Y-89774744D01*
G37*
G36*
X146131616Y-89208988D02*
G01*
X145736485Y-88813857D01*
X146634510Y-87915832D01*
X147029641Y-88310963D01*
X146131616Y-89208988D01*
G37*
G36*
X145565860Y-88643231D02*
G01*
X145170729Y-88248100D01*
X146068754Y-87350075D01*
X146463885Y-87745206D01*
X145565860Y-88643231D01*
G37*
G36*
X145001900Y-88079271D02*
G01*
X144606769Y-87684140D01*
X145504794Y-86786115D01*
X145899925Y-87181246D01*
X145001900Y-88079271D01*
G37*
G36*
X144436143Y-87513515D02*
G01*
X144041012Y-87118384D01*
X144939037Y-86220359D01*
X145334168Y-86615490D01*
X144436143Y-87513515D01*
G37*
G36*
X143870387Y-86947759D02*
G01*
X143475256Y-86552628D01*
X144373281Y-85654603D01*
X144768412Y-86049734D01*
X143870387Y-86947759D01*
G37*
G36*
X143304631Y-86382003D02*
G01*
X142909500Y-85986872D01*
X143807525Y-85088847D01*
X144202656Y-85483978D01*
X143304631Y-86382003D01*
G37*
G36*
X141695369Y-86382003D02*
G01*
X140797344Y-85483978D01*
X141192475Y-85088847D01*
X142090500Y-85986872D01*
X141695369Y-86382003D01*
G37*
G36*
X141129613Y-86947759D02*
G01*
X140231588Y-86049734D01*
X140626719Y-85654603D01*
X141524744Y-86552628D01*
X141129613Y-86947759D01*
G37*
G36*
X140563857Y-87513515D02*
G01*
X139665832Y-86615490D01*
X140060963Y-86220359D01*
X140958988Y-87118384D01*
X140563857Y-87513515D01*
G37*
G36*
X139998100Y-88079271D02*
G01*
X139100075Y-87181246D01*
X139495206Y-86786115D01*
X140393231Y-87684140D01*
X139998100Y-88079271D01*
G37*
G36*
X139434140Y-88643231D02*
G01*
X138536115Y-87745206D01*
X138931246Y-87350075D01*
X139829271Y-88248100D01*
X139434140Y-88643231D01*
G37*
G36*
X138868384Y-89208988D02*
G01*
X137970359Y-88310963D01*
X138365490Y-87915832D01*
X139263515Y-88813857D01*
X138868384Y-89208988D01*
G37*
G36*
X138302628Y-89774744D02*
G01*
X137404603Y-88876719D01*
X137799734Y-88481588D01*
X138697759Y-89379613D01*
X138302628Y-89774744D01*
G37*
G36*
X137736872Y-90340500D02*
G01*
X136838847Y-89442475D01*
X137233978Y-89047344D01*
X138132003Y-89945369D01*
X137736872Y-90340500D01*
G37*
%TD*%
%TO.C,R9*%
G36*
G01*
X138105000Y-97215000D02*
X138655000Y-97215000D01*
G75*
G02*
X138855000Y-97415000I0J-200000D01*
G01*
X138855000Y-97815000D01*
G75*
G02*
X138655000Y-98015000I-200000J0D01*
G01*
X138105000Y-98015000D01*
G75*
G02*
X137905000Y-97815000I0J200000D01*
G01*
X137905000Y-97415000D01*
G75*
G02*
X138105000Y-97215000I200000J0D01*
G01*
G37*
G36*
G01*
X138105000Y-95565000D02*
X138655000Y-95565000D01*
G75*
G02*
X138855000Y-95765000I0J-200000D01*
G01*
X138855000Y-96165000D01*
G75*
G02*
X138655000Y-96365000I-200000J0D01*
G01*
X138105000Y-96365000D01*
G75*
G02*
X137905000Y-96165000I0J200000D01*
G01*
X137905000Y-95765000D01*
G75*
G02*
X138105000Y-95565000I200000J0D01*
G01*
G37*
%TD*%
%TO.C,R4*%
G36*
G01*
X137135000Y-83815000D02*
X136585000Y-83815000D01*
G75*
G02*
X136385000Y-83615000I0J200000D01*
G01*
X136385000Y-83215000D01*
G75*
G02*
X136585000Y-83015000I200000J0D01*
G01*
X137135000Y-83015000D01*
G75*
G02*
X137335000Y-83215000I0J-200000D01*
G01*
X137335000Y-83615000D01*
G75*
G02*
X137135000Y-83815000I-200000J0D01*
G01*
G37*
G36*
G01*
X137135000Y-85465000D02*
X136585000Y-85465000D01*
G75*
G02*
X136385000Y-85265000I0J200000D01*
G01*
X136385000Y-84865000D01*
G75*
G02*
X136585000Y-84665000I200000J0D01*
G01*
X137135000Y-84665000D01*
G75*
G02*
X137335000Y-84865000I0J-200000D01*
G01*
X137335000Y-85265000D01*
G75*
G02*
X137135000Y-85465000I-200000J0D01*
G01*
G37*
%TD*%
%TO.C,C1*%
G36*
G01*
X148632807Y-88857609D02*
X148392391Y-88617193D01*
G75*
G02*
X148392391Y-88419203I98995J98995D01*
G01*
X148590381Y-88221213D01*
G75*
G02*
X148788371Y-88221213I98995J-98995D01*
G01*
X149028787Y-88461629D01*
G75*
G02*
X149028787Y-88659619I-98995J-98995D01*
G01*
X148830797Y-88857609D01*
G75*
G02*
X148632807Y-88857609I-98995J98995D01*
G01*
G37*
G36*
G01*
X149311629Y-88178787D02*
X149071213Y-87938371D01*
G75*
G02*
X149071213Y-87740381I98995J98995D01*
G01*
X149269203Y-87542391D01*
G75*
G02*
X149467193Y-87542391I98995J-98995D01*
G01*
X149707609Y-87782807D01*
G75*
G02*
X149707609Y-87980797I-98995J-98995D01*
G01*
X149509619Y-88178787D01*
G75*
G02*
X149311629Y-88178787I-98995J98995D01*
G01*
G37*
%TD*%
%TO.C,C2*%
G36*
G01*
X148611629Y-87468787D02*
X148371213Y-87228371D01*
G75*
G02*
X148371213Y-87030381I98995J98995D01*
G01*
X148569203Y-86832391D01*
G75*
G02*
X148767193Y-86832391I98995J-98995D01*
G01*
X149007609Y-87072807D01*
G75*
G02*
X149007609Y-87270797I-98995J-98995D01*
G01*
X148809619Y-87468787D01*
G75*
G02*
X148611629Y-87468787I-98995J98995D01*
G01*
G37*
G36*
G01*
X147932807Y-88147609D02*
X147692391Y-87907193D01*
G75*
G02*
X147692391Y-87709203I98995J98995D01*
G01*
X147890381Y-87511213D01*
G75*
G02*
X148088371Y-87511213I98995J-98995D01*
G01*
X148328787Y-87751629D01*
G75*
G02*
X148328787Y-87949619I-98995J-98995D01*
G01*
X148130797Y-88147609D01*
G75*
G02*
X147932807Y-88147609I-98995J98995D01*
G01*
G37*
%TD*%
%TO.C,C3*%
G36*
G01*
X152160000Y-83230000D02*
X152160000Y-83570000D01*
G75*
G02*
X152020000Y-83710000I-140000J0D01*
G01*
X151740000Y-83710000D01*
G75*
G02*
X151600000Y-83570000I0J140000D01*
G01*
X151600000Y-83230000D01*
G75*
G02*
X151740000Y-83090000I140000J0D01*
G01*
X152020000Y-83090000D01*
G75*
G02*
X152160000Y-83230000I0J-140000D01*
G01*
G37*
G36*
G01*
X151200000Y-83230000D02*
X151200000Y-83570000D01*
G75*
G02*
X151060000Y-83710000I-140000J0D01*
G01*
X150780000Y-83710000D01*
G75*
G02*
X150640000Y-83570000I0J140000D01*
G01*
X150640000Y-83230000D01*
G75*
G02*
X150780000Y-83090000I140000J0D01*
G01*
X151060000Y-83090000D01*
G75*
G02*
X151200000Y-83230000I0J-140000D01*
G01*
G37*
%TD*%
%TO.C,C4*%
G36*
G01*
X131180000Y-84390000D02*
X130840000Y-84390000D01*
G75*
G02*
X130700000Y-84250000I0J140000D01*
G01*
X130700000Y-83970000D01*
G75*
G02*
X130840000Y-83830000I140000J0D01*
G01*
X131180000Y-83830000D01*
G75*
G02*
X131320000Y-83970000I0J-140000D01*
G01*
X131320000Y-84250000D01*
G75*
G02*
X131180000Y-84390000I-140000J0D01*
G01*
G37*
G36*
G01*
X131180000Y-85350000D02*
X130840000Y-85350000D01*
G75*
G02*
X130700000Y-85210000I0J140000D01*
G01*
X130700000Y-84930000D01*
G75*
G02*
X130840000Y-84790000I140000J0D01*
G01*
X131180000Y-84790000D01*
G75*
G02*
X131320000Y-84930000I0J-140000D01*
G01*
X131320000Y-85210000D01*
G75*
G02*
X131180000Y-85350000I-140000J0D01*
G01*
G37*
%TD*%
%TO.C,C5*%
G36*
G01*
X130080000Y-85360000D02*
X129740000Y-85360000D01*
G75*
G02*
X129600000Y-85220000I0J140000D01*
G01*
X129600000Y-84940000D01*
G75*
G02*
X129740000Y-84800000I140000J0D01*
G01*
X130080000Y-84800000D01*
G75*
G02*
X130220000Y-84940000I0J-140000D01*
G01*
X130220000Y-85220000D01*
G75*
G02*
X130080000Y-85360000I-140000J0D01*
G01*
G37*
G36*
G01*
X130080000Y-84400000D02*
X129740000Y-84400000D01*
G75*
G02*
X129600000Y-84260000I0J140000D01*
G01*
X129600000Y-83980000D01*
G75*
G02*
X129740000Y-83840000I140000J0D01*
G01*
X130080000Y-83840000D01*
G75*
G02*
X130220000Y-83980000I0J-140000D01*
G01*
X130220000Y-84260000D01*
G75*
G02*
X130080000Y-84400000I-140000J0D01*
G01*
G37*
%TD*%
%TO.C,C6*%
G36*
G01*
X133440000Y-84420000D02*
X133100000Y-84420000D01*
G75*
G02*
X132960000Y-84280000I0J140000D01*
G01*
X132960000Y-84000000D01*
G75*
G02*
X133100000Y-83860000I140000J0D01*
G01*
X133440000Y-83860000D01*
G75*
G02*
X133580000Y-84000000I0J-140000D01*
G01*
X133580000Y-84280000D01*
G75*
G02*
X133440000Y-84420000I-140000J0D01*
G01*
G37*
G36*
G01*
X133440000Y-85380000D02*
X133100000Y-85380000D01*
G75*
G02*
X132960000Y-85240000I0J140000D01*
G01*
X132960000Y-84960000D01*
G75*
G02*
X133100000Y-84820000I140000J0D01*
G01*
X133440000Y-84820000D01*
G75*
G02*
X133580000Y-84960000I0J-140000D01*
G01*
X133580000Y-85240000D01*
G75*
G02*
X133440000Y-85380000I-140000J0D01*
G01*
G37*
%TD*%
%TO.C,C7*%
G36*
G01*
X134560000Y-85380000D02*
X134220000Y-85380000D01*
G75*
G02*
X134080000Y-85240000I0J140000D01*
G01*
X134080000Y-84960000D01*
G75*
G02*
X134220000Y-84820000I140000J0D01*
G01*
X134560000Y-84820000D01*
G75*
G02*
X134700000Y-84960000I0J-140000D01*
G01*
X134700000Y-85240000D01*
G75*
G02*
X134560000Y-85380000I-140000J0D01*
G01*
G37*
G36*
G01*
X134560000Y-84420000D02*
X134220000Y-84420000D01*
G75*
G02*
X134080000Y-84280000I0J140000D01*
G01*
X134080000Y-84000000D01*
G75*
G02*
X134220000Y-83860000I140000J0D01*
G01*
X134560000Y-83860000D01*
G75*
G02*
X134700000Y-84000000I0J-140000D01*
G01*
X134700000Y-84280000D01*
G75*
G02*
X134560000Y-84420000I-140000J0D01*
G01*
G37*
%TD*%
%TO.C,C8*%
G36*
G01*
X152950000Y-95170000D02*
X153290000Y-95170000D01*
G75*
G02*
X153430000Y-95310000I0J-140000D01*
G01*
X153430000Y-95590000D01*
G75*
G02*
X153290000Y-95730000I-140000J0D01*
G01*
X152950000Y-95730000D01*
G75*
G02*
X152810000Y-95590000I0J140000D01*
G01*
X152810000Y-95310000D01*
G75*
G02*
X152950000Y-95170000I140000J0D01*
G01*
G37*
G36*
G01*
X152950000Y-96130000D02*
X153290000Y-96130000D01*
G75*
G02*
X153430000Y-96270000I0J-140000D01*
G01*
X153430000Y-96550000D01*
G75*
G02*
X153290000Y-96690000I-140000J0D01*
G01*
X152950000Y-96690000D01*
G75*
G02*
X152810000Y-96550000I0J140000D01*
G01*
X152810000Y-96270000D01*
G75*
G02*
X152950000Y-96130000I140000J0D01*
G01*
G37*
%TD*%
%TO.C,C9*%
G36*
G01*
X157900000Y-95700000D02*
X157560000Y-95700000D01*
G75*
G02*
X157420000Y-95560000I0J140000D01*
G01*
X157420000Y-95280000D01*
G75*
G02*
X157560000Y-95140000I140000J0D01*
G01*
X157900000Y-95140000D01*
G75*
G02*
X158040000Y-95280000I0J-140000D01*
G01*
X158040000Y-95560000D01*
G75*
G02*
X157900000Y-95700000I-140000J0D01*
G01*
G37*
G36*
G01*
X157900000Y-96660000D02*
X157560000Y-96660000D01*
G75*
G02*
X157420000Y-96520000I0J140000D01*
G01*
X157420000Y-96240000D01*
G75*
G02*
X157560000Y-96100000I140000J0D01*
G01*
X157900000Y-96100000D01*
G75*
G02*
X158040000Y-96240000I0J-140000D01*
G01*
X158040000Y-96520000D01*
G75*
G02*
X157900000Y-96660000I-140000J0D01*
G01*
G37*
%TD*%
%TO.C,D1*%
G36*
G01*
X157093750Y-83375000D02*
X157606250Y-83375000D01*
G75*
G02*
X157825000Y-83593750I0J-218750D01*
G01*
X157825000Y-84031250D01*
G75*
G02*
X157606250Y-84250000I-218750J0D01*
G01*
X157093750Y-84250000D01*
G75*
G02*
X156875000Y-84031250I0J218750D01*
G01*
X156875000Y-83593750D01*
G75*
G02*
X157093750Y-83375000I218750J0D01*
G01*
G37*
G36*
G01*
X157093750Y-84950000D02*
X157606250Y-84950000D01*
G75*
G02*
X157825000Y-85168750I0J-218750D01*
G01*
X157825000Y-85606250D01*
G75*
G02*
X157606250Y-85825000I-218750J0D01*
G01*
X157093750Y-85825000D01*
G75*
G02*
X156875000Y-85606250I0J218750D01*
G01*
X156875000Y-85168750D01*
G75*
G02*
X157093750Y-84950000I218750J0D01*
G01*
G37*
%TD*%
%TO.C,D3*%
G36*
G01*
X122176250Y-97842500D02*
X121663750Y-97842500D01*
G75*
G02*
X121445000Y-97623750I0J218750D01*
G01*
X121445000Y-97186250D01*
G75*
G02*
X121663750Y-96967500I218750J0D01*
G01*
X122176250Y-96967500D01*
G75*
G02*
X122395000Y-97186250I0J-218750D01*
G01*
X122395000Y-97623750D01*
G75*
G02*
X122176250Y-97842500I-218750J0D01*
G01*
G37*
G36*
G01*
X122176250Y-96267500D02*
X121663750Y-96267500D01*
G75*
G02*
X121445000Y-96048750I0J218750D01*
G01*
X121445000Y-95611250D01*
G75*
G02*
X121663750Y-95392500I218750J0D01*
G01*
X122176250Y-95392500D01*
G75*
G02*
X122395000Y-95611250I0J-218750D01*
G01*
X122395000Y-96048750D01*
G75*
G02*
X122176250Y-96267500I-218750J0D01*
G01*
G37*
%TD*%
%TO.C,D4*%
G36*
G01*
X124446250Y-96222500D02*
X123933750Y-96222500D01*
G75*
G02*
X123715000Y-96003750I0J218750D01*
G01*
X123715000Y-95566250D01*
G75*
G02*
X123933750Y-95347500I218750J0D01*
G01*
X124446250Y-95347500D01*
G75*
G02*
X124665000Y-95566250I0J-218750D01*
G01*
X124665000Y-96003750D01*
G75*
G02*
X124446250Y-96222500I-218750J0D01*
G01*
G37*
G36*
G01*
X124446250Y-97797500D02*
X123933750Y-97797500D01*
G75*
G02*
X123715000Y-97578750I0J218750D01*
G01*
X123715000Y-97141250D01*
G75*
G02*
X123933750Y-96922500I218750J0D01*
G01*
X124446250Y-96922500D01*
G75*
G02*
X124665000Y-97141250I0J-218750D01*
G01*
X124665000Y-97578750D01*
G75*
G02*
X124446250Y-97797500I-218750J0D01*
G01*
G37*
%TD*%
D11*
%TO.C,HSE1*%
X154560000Y-95060000D03*
X154560000Y-97260000D03*
X156260000Y-97260000D03*
X156260000Y-95060000D03*
%TD*%
%TO.C,R2*%
G36*
G01*
X155500000Y-83370000D02*
X156050000Y-83370000D01*
G75*
G02*
X156250000Y-83570000I0J-200000D01*
G01*
X156250000Y-83970000D01*
G75*
G02*
X156050000Y-84170000I-200000J0D01*
G01*
X155500000Y-84170000D01*
G75*
G02*
X155300000Y-83970000I0J200000D01*
G01*
X155300000Y-83570000D01*
G75*
G02*
X155500000Y-83370000I200000J0D01*
G01*
G37*
G36*
G01*
X155500000Y-85020000D02*
X156050000Y-85020000D01*
G75*
G02*
X156250000Y-85220000I0J-200000D01*
G01*
X156250000Y-85620000D01*
G75*
G02*
X156050000Y-85820000I-200000J0D01*
G01*
X155500000Y-85820000D01*
G75*
G02*
X155300000Y-85620000I0J200000D01*
G01*
X155300000Y-85220000D01*
G75*
G02*
X155500000Y-85020000I200000J0D01*
G01*
G37*
%TD*%
%TO.C,R3*%
G36*
G01*
X124635000Y-84175000D02*
X124635000Y-83625000D01*
G75*
G02*
X124835000Y-83425000I200000J0D01*
G01*
X125235000Y-83425000D01*
G75*
G02*
X125435000Y-83625000I0J-200000D01*
G01*
X125435000Y-84175000D01*
G75*
G02*
X125235000Y-84375000I-200000J0D01*
G01*
X124835000Y-84375000D01*
G75*
G02*
X124635000Y-84175000I0J200000D01*
G01*
G37*
G36*
G01*
X122985000Y-84175000D02*
X122985000Y-83625000D01*
G75*
G02*
X123185000Y-83425000I200000J0D01*
G01*
X123585000Y-83425000D01*
G75*
G02*
X123785000Y-83625000I0J-200000D01*
G01*
X123785000Y-84175000D01*
G75*
G02*
X123585000Y-84375000I-200000J0D01*
G01*
X123185000Y-84375000D01*
G75*
G02*
X122985000Y-84175000I0J200000D01*
G01*
G37*
%TD*%
%TO.C,R5*%
G36*
G01*
X138655000Y-85445000D02*
X138105000Y-85445000D01*
G75*
G02*
X137905000Y-85245000I0J200000D01*
G01*
X137905000Y-84845000D01*
G75*
G02*
X138105000Y-84645000I200000J0D01*
G01*
X138655000Y-84645000D01*
G75*
G02*
X138855000Y-84845000I0J-200000D01*
G01*
X138855000Y-85245000D01*
G75*
G02*
X138655000Y-85445000I-200000J0D01*
G01*
G37*
G36*
G01*
X138655000Y-83795000D02*
X138105000Y-83795000D01*
G75*
G02*
X137905000Y-83595000I0J200000D01*
G01*
X137905000Y-83195000D01*
G75*
G02*
X138105000Y-82995000I200000J0D01*
G01*
X138655000Y-82995000D01*
G75*
G02*
X138855000Y-83195000I0J-200000D01*
G01*
X138855000Y-83595000D01*
G75*
G02*
X138655000Y-83795000I-200000J0D01*
G01*
G37*
%TD*%
%TO.C,R6*%
G36*
G01*
X131435000Y-95210000D02*
X131985000Y-95210000D01*
G75*
G02*
X132185000Y-95410000I0J-200000D01*
G01*
X132185000Y-95810000D01*
G75*
G02*
X131985000Y-96010000I-200000J0D01*
G01*
X131435000Y-96010000D01*
G75*
G02*
X131235000Y-95810000I0J200000D01*
G01*
X131235000Y-95410000D01*
G75*
G02*
X131435000Y-95210000I200000J0D01*
G01*
G37*
G36*
G01*
X131435000Y-96860000D02*
X131985000Y-96860000D01*
G75*
G02*
X132185000Y-97060000I0J-200000D01*
G01*
X132185000Y-97460000D01*
G75*
G02*
X131985000Y-97660000I-200000J0D01*
G01*
X131435000Y-97660000D01*
G75*
G02*
X131235000Y-97460000I0J200000D01*
G01*
X131235000Y-97060000D01*
G75*
G02*
X131435000Y-96860000I200000J0D01*
G01*
G37*
%TD*%
%TO.C,R7*%
G36*
G01*
X134995000Y-97695000D02*
X134445000Y-97695000D01*
G75*
G02*
X134245000Y-97495000I0J200000D01*
G01*
X134245000Y-97095000D01*
G75*
G02*
X134445000Y-96895000I200000J0D01*
G01*
X134995000Y-96895000D01*
G75*
G02*
X135195000Y-97095000I0J-200000D01*
G01*
X135195000Y-97495000D01*
G75*
G02*
X134995000Y-97695000I-200000J0D01*
G01*
G37*
G36*
G01*
X134995000Y-96045000D02*
X134445000Y-96045000D01*
G75*
G02*
X134245000Y-95845000I0J200000D01*
G01*
X134245000Y-95445000D01*
G75*
G02*
X134445000Y-95245000I200000J0D01*
G01*
X134995000Y-95245000D01*
G75*
G02*
X135195000Y-95445000I0J-200000D01*
G01*
X135195000Y-95845000D01*
G75*
G02*
X134995000Y-96045000I-200000J0D01*
G01*
G37*
%TD*%
%TO.C,R8*%
G36*
G01*
X127355000Y-92815000D02*
X126805000Y-92815000D01*
G75*
G02*
X126605000Y-92615000I0J200000D01*
G01*
X126605000Y-92215000D01*
G75*
G02*
X126805000Y-92015000I200000J0D01*
G01*
X127355000Y-92015000D01*
G75*
G02*
X127555000Y-92215000I0J-200000D01*
G01*
X127555000Y-92615000D01*
G75*
G02*
X127355000Y-92815000I-200000J0D01*
G01*
G37*
G36*
G01*
X127355000Y-94465000D02*
X126805000Y-94465000D01*
G75*
G02*
X126605000Y-94265000I0J200000D01*
G01*
X126605000Y-93865000D01*
G75*
G02*
X126805000Y-93665000I200000J0D01*
G01*
X127355000Y-93665000D01*
G75*
G02*
X127555000Y-93865000I0J-200000D01*
G01*
X127555000Y-94265000D01*
G75*
G02*
X127355000Y-94465000I-200000J0D01*
G01*
G37*
%TD*%
%TO.C,R10*%
G36*
G01*
X126585000Y-95815000D02*
X126585000Y-95265000D01*
G75*
G02*
X126785000Y-95065000I200000J0D01*
G01*
X127185000Y-95065000D01*
G75*
G02*
X127385000Y-95265000I0J-200000D01*
G01*
X127385000Y-95815000D01*
G75*
G02*
X127185000Y-96015000I-200000J0D01*
G01*
X126785000Y-96015000D01*
G75*
G02*
X126585000Y-95815000I0J200000D01*
G01*
G37*
G36*
G01*
X128235000Y-95815000D02*
X128235000Y-95265000D01*
G75*
G02*
X128435000Y-95065000I200000J0D01*
G01*
X128835000Y-95065000D01*
G75*
G02*
X129035000Y-95265000I0J-200000D01*
G01*
X129035000Y-95815000D01*
G75*
G02*
X128835000Y-96015000I-200000J0D01*
G01*
X128435000Y-96015000D01*
G75*
G02*
X128235000Y-95815000I0J200000D01*
G01*
G37*
%TD*%
D12*
%TO.C,SW1*%
X157919000Y-92680000D03*
X152331000Y-92680000D03*
X157919000Y-88870000D03*
X152331000Y-88870000D03*
%TD*%
D13*
%TO.C,U2*%
X131810000Y-93130000D03*
D14*
X131810000Y-86830000D03*
X129510000Y-86830000D03*
X134110000Y-86830000D03*
%TD*%
M02*
